<svg width="130" height="54" viewBox="0 0 130 54" fill="none" xmlns="http://www.w3.org/2000/svg">
<mask id="mask0_264_3" style="mask-type:luminance" maskUnits="userSpaceOnUse" x="0" y="0" width="130" height="24">
<path d="M130 0H0V23.9529H130V0Z" fill="white"/>
</mask>
<g mask="url(#mask0_264_3)">
<path fill-rule="evenodd" clip-rule="evenodd" d="M126.86 8.40348C125.452 8.40348 124.582 7.35819 124.582 6.07937C124.582 4.7094 125.579 3.75461 126.86 3.75461C128.126 3.75461 129.122 4.7094 129.122 6.07937C129.122 7.45533 128.126 8.40348 126.86 8.40348ZM126.86 3.26491C125.295 3.26491 123.95 4.3867 123.95 6.07937C123.95 7.68155 125.16 8.89249 126.86 8.89249C128.411 8.89249 129.755 7.77207 129.755 6.07937C129.755 4.3867 128.411 3.26491 126.86 3.26491ZM126.275 5.92035V5.01081H126.924C127.248 5.01081 127.635 5.05605 127.635 5.43198C127.635 5.88376 127.28 5.92035 126.876 5.92035H126.275ZM128.173 5.4699C128.173 4.83781 127.77 4.57433 126.98 4.57433H125.738V7.68887H126.275V6.35749H126.782L127.628 7.68887H128.237L127.319 6.31957C127.809 6.267 128.173 6.03346 128.173 5.4699ZM21.5801 3.557C20.9659 2.97016 20.1628 2.67673 19.3598 2.67673C18.5532 2.67673 17.7467 2.97215 17.1297 3.56033L13.4753 7.03682L9.81467 3.55567C9.20115 2.97016 8.39385 2.67607 7.58872 2.67607C6.78426 2.67607 5.9791 2.96816 5.3663 3.55501L0.918661 7.78402C-0.30692 8.94973 -0.30692 10.846 0.922862 12.0137L13.4753 23.9529L26.027 12.0137C27.2555 10.8467 27.252 8.95174 26.0249 7.78402L21.5801 3.557ZM103.2 14.8754C103.2 13.3038 103.234 11.2133 103.234 11.2133C103.234 6.50919 101.064 4.39668 94.9324 4.39668C91.4907 4.39668 89.0386 4.97089 85.1955 4.97089C85.4091 8.27303 85.4173 12.3523 85.401 14.8754C85.4181 17.447 85.3125 22.048 85.1955 23.531H91.7832C91.6321 22.0427 91.4996 17.7624 91.5175 14.8754C91.5175 13.2326 91.5403 11.2419 91.6069 8.57242C92.2618 8.35758 93.0962 8.19851 93.9997 8.19851C96.3072 8.19851 97.0498 9.22783 97.0498 12.0563C97.0498 12.0563 97.0839 13.8295 97.0839 14.8754C97.0839 17.447 96.9954 22.048 96.8776 23.531H103.468C103.314 22.0427 103.183 17.7624 103.2 14.8754ZM114.817 20.3087C112.712 20.3087 111.821 19.6413 111.821 17.97C111.821 16.3625 112.959 15.4462 115.827 15.4462C116.088 15.4462 116.41 15.437 116.642 15.4609C116.631 17.0198 116.59 18.8376 116.687 20.0991C116.19 20.2255 115.452 20.3087 114.817 20.3087ZM122.941 11.4761C122.941 6.26767 120.677 4.38271 114.638 4.38271C111.683 4.38271 109.081 4.80188 107.493 5.41534L107.729 9.57119C109.111 8.86919 111.17 8.1972 113.137 8.1972C115.903 8.1972 116.738 9.27844 116.738 11.8852V12.2699C116.544 12.2652 116.062 12.2605 115.796 12.2605C108.907 12.2605 105.726 14.2427 105.726 17.9167C105.726 21.702 107.708 23.9283 113.348 23.9283C116.324 23.9283 119.258 23.529 123.038 23.529C122.766 22.014 122.757 19.8317 122.757 18.3306C122.757 16.6492 122.941 14.2626 122.941 11.4761ZM80.7362 19.7904C78.7089 19.7904 78.113 19.0272 78.113 16.2234V8.991H82.1161V4.97089H78.1752C78.1773 3.54901 78.2921 1.44782 78.4221 0H74.7119C74.2187 3.51442 73.154 5.32152 69.7787 5.85448C69.7647 6.80128 69.8179 8.08805 69.7787 8.98961H72.0278C71.9935 10.9857 71.927 14.6298 71.927 17.9527C71.927 22.193 74.2369 23.9303 78.5754 23.9303C80.6872 23.9303 82.242 23.6408 82.7555 23.4991L82.4882 19.3653C82.1096 19.6054 81.3653 19.7904 80.7362 19.7904ZM56.5994 12.4894V12.3969C56.5994 9.79005 57.4704 7.87582 59.9846 7.87582C61.4088 7.87582 62.3307 8.58646 62.3307 9.87791C62.3307 11.695 61.0604 12.538 58.412 12.538C57.7719 12.538 57.0961 12.528 56.5994 12.4894ZM38.4563 20.3087C36.3563 20.3087 35.4602 19.6413 35.4602 17.97C35.4602 16.3625 36.597 15.4462 39.4651 15.4462C39.7316 15.4462 40.0541 15.437 40.285 15.4609C40.2696 17.0198 40.2339 18.8376 40.3262 20.0991C39.8289 20.2255 39.0964 20.3087 38.4563 20.3087ZM59.15 15.6997C65.2142 15.6997 68.3286 13.8927 68.3286 9.99965C68.3286 6.63827 65.762 4.40666 60.1853 4.40666C53.4285 4.40666 50.7241 7.27635 50.1141 12.4109C49.1257 12.3523 48.0505 12.3284 46.58 12.3231C46.58 12.0463 46.585 11.7635 46.585 11.4761C46.585 6.26767 44.3164 4.38271 38.2766 4.38271C35.3267 4.38271 32.7202 4.80188 31.1316 5.41534L31.3673 9.57119C32.7502 8.86919 34.8146 8.1972 36.7768 8.1972C39.5421 8.1972 40.3822 9.27844 40.3822 11.8852L40.3773 12.2699C40.1877 12.2652 39.7008 12.2605 39.4343 12.2605C32.5509 12.2605 29.3645 14.2427 29.3645 17.9167C29.3645 21.702 31.347 23.9283 36.986 23.9283C39.9625 23.9283 42.8977 23.529 46.6829 23.529C46.4059 22.014 46.3961 19.8317 46.3961 18.3306C46.3961 17.5414 46.4366 16.596 46.4829 15.5241C48.0959 15.5394 49.2894 15.578 50.0728 15.6119C50.6528 21.702 53.9713 23.9529 60.8764 23.9529C63.427 23.9529 66.0082 23.539 67.3604 22.9395L67.1246 18.7837C65.7823 19.5242 63.9138 20.1284 61.8649 20.1284C58.4687 20.1284 56.6345 18.443 56.6345 15.783V15.6558C57.2395 15.6852 58.4428 15.6997 59.15 15.6997Z" fill="#7D3F98"/>
</g>
<path d="M0.221191 42.9047L3.78319 34.1413H5.16119L8.71019 42.9047H7.33219L6.43519 40.6089H2.44419L1.56019 42.9047H0.221191ZM2.84719 39.5598H6.03219L4.44619 35.4496L2.84719 39.5598ZM12.721 43.1145C12.097 43.1145 11.5336 42.9788 11.031 42.7072C10.5283 42.4357 10.1296 42.0448 9.83502 41.5346C9.54032 41.0162 9.39302 40.3991 9.39302 39.6832C9.39302 38.9756 9.54463 38.3749 9.84802 37.8812C10.16 37.3792 10.563 36.9966 11.057 36.7333C11.5596 36.4617 12.1013 36.326 12.682 36.326C13.306 36.326 13.8563 36.4576 14.333 36.7209C14.8183 36.9842 15.1953 37.3628 15.464 37.8565C15.7413 38.3502 15.88 38.9386 15.88 39.6215C15.88 39.7038 15.88 39.7861 15.88 39.8684C15.88 39.9507 15.8756 40.0206 15.867 40.0782H10.628C10.68 40.7447 10.9053 41.2508 11.304 41.5964C11.7113 41.942 12.1836 42.1148 12.721 42.1148C13.1196 42.1148 13.4793 42.0325 13.8 41.8679C14.1206 41.7034 14.359 41.4071 14.515 40.9792H15.776C15.646 41.4647 15.425 41.8679 15.113 42.1888C14.801 42.5015 14.437 42.736 14.021 42.8924C13.605 43.0405 13.1716 43.1145 12.721 43.1145ZM12.669 37.3257C12.1663 37.3257 11.7156 37.4903 11.317 37.8195C10.9183 38.1404 10.6886 38.6094 10.628 39.2265H14.632C14.58 38.593 14.3676 38.1198 13.995 37.8071C13.631 37.4862 13.189 37.3257 12.669 37.3257ZM19.3421 42.9047C18.7961 42.9047 18.3627 42.7772 18.0421 42.5221C17.7301 42.2588 17.5741 41.8268 17.5741 41.2261V37.4985H16.5601V36.5358H16.9761C17.2621 36.5358 17.4527 36.4864 17.5481 36.3877C17.6434 36.2889 17.6911 36.1079 17.6911 35.8446V34.8572H18.7961V36.5358H20.3821V37.4985H18.7961V41.0286C18.7961 41.3659 18.8784 41.5964 19.0431 41.7198C19.2077 41.835 19.4417 41.8926 19.7451 41.8926H20.3821V42.9047H19.3421ZM21.5908 42.9047V36.5358H22.7608V37.6096C22.9862 37.1653 23.3198 36.8403 23.7618 36.6345C24.2038 36.4288 24.6415 36.326 25.0748 36.326C25.5168 36.326 25.9242 36.4206 26.2968 36.6099C26.6695 36.7909 26.9685 37.0665 27.1938 37.4368C27.4192 37.8071 27.5318 38.2679 27.5318 38.8192V42.9047H26.3228V39.0044C26.3228 38.4448 26.1755 38.0169 25.8808 37.7207C25.5862 37.4245 25.1918 37.2764 24.6978 37.2764C24.1692 37.2764 23.7228 37.4451 23.3588 37.7824C22.9948 38.1116 22.8128 38.5518 22.8128 39.1031V42.9047H21.5908ZM31.1436 43.0898C30.4849 43.0898 29.9432 42.9335 29.5186 42.6208C29.0939 42.2999 28.8816 41.8268 28.8816 41.2014C28.8816 40.6089 29.0896 40.144 29.5056 39.8067C29.9302 39.4611 30.5369 39.2389 31.3256 39.1401L33.4316 38.8809V38.6711C33.4316 38.2185 33.2886 37.8771 33.0026 37.6467C32.7166 37.4162 32.3266 37.3011 31.8326 37.3011C31.4339 37.3011 31.0786 37.3875 30.7666 37.5603C30.4632 37.7248 30.3116 37.9882 30.3116 38.3502C30.3116 38.3831 30.3116 38.416 30.3116 38.4489C30.3116 38.4819 30.3159 38.5189 30.3246 38.56H29.1936C29.1762 38.4613 29.1676 38.3625 29.1676 38.2638C29.1676 37.8606 29.2889 37.515 29.5316 37.227C29.7742 36.939 30.0992 36.7168 30.5066 36.5605C30.9139 36.4041 31.3646 36.326 31.8586 36.326C32.3872 36.326 32.8596 36.4165 33.2756 36.5975C33.7002 36.7703 34.0339 37.0295 34.2766 37.3751C34.5279 37.7207 34.6536 38.1527 34.6536 38.6711V41.4236C34.6536 41.7692 34.8269 41.942 35.1736 41.942H35.3946V42.9047H34.7966C34.4066 42.9047 34.1119 42.8224 33.9126 42.6578C33.7132 42.485 33.6049 42.2382 33.5876 41.9173C33.3362 42.3205 32.9852 42.6167 32.5346 42.806C32.0839 42.9952 31.6202 43.0898 31.1436 43.0898ZM30.1296 41.0656C30.1296 41.403 30.2466 41.6622 30.4806 41.8432C30.7232 42.0243 31.0482 42.1148 31.4556 42.1148C32.0449 42.1148 32.5216 41.9461 32.8856 41.6087C33.2496 41.2631 33.4316 40.8311 33.4316 40.3127V39.7573L31.5336 39.9918C31.0829 40.0494 30.7362 40.1646 30.4936 40.3374C30.2509 40.5019 30.1296 40.7447 30.1296 41.0656ZM39.8646 42.9047V34.1413H43.5046C44.0852 34.1413 44.5836 34.24 44.9996 34.4375C45.4242 34.6267 45.7492 34.8901 45.9746 35.2275C46.2086 35.5648 46.3256 35.9516 46.3256 36.3877C46.3256 36.7827 46.2129 37.1612 45.9876 37.5232C45.7709 37.8853 45.4459 38.1527 45.0126 38.3255C45.5586 38.4901 45.9702 38.7739 46.2476 39.1772C46.5249 39.5721 46.6636 39.9835 46.6636 40.4115C46.6636 41.1603 46.4036 41.7651 45.8836 42.2258C45.3636 42.6784 44.6139 42.9047 43.6346 42.9047H39.8646ZM43.2316 35.1904H41.1386V37.8318H43.3226C43.8859 37.8318 44.3106 37.7125 44.5966 37.4739C44.8826 37.2352 45.0256 36.9102 45.0256 36.4988C45.0256 36.0874 44.8739 35.7665 44.5706 35.536C44.2672 35.3056 43.8209 35.1904 43.2316 35.1904ZM43.3876 38.8809H41.1386V41.8556H43.3746C44.0506 41.8556 44.5489 41.728 44.8696 41.4729C45.1902 41.2178 45.3506 40.8475 45.3506 40.3621C45.3506 39.926 45.1859 39.5721 44.8566 39.3006C44.5359 39.0208 44.0462 38.8809 43.3876 38.8809ZM51.0482 43.1145C50.4242 43.1145 49.8608 42.9788 49.3582 42.7072C48.8555 42.4357 48.4568 42.0448 48.1622 41.5346C47.8675 41.0162 47.7202 40.3991 47.7202 39.6832C47.7202 38.9756 47.8718 38.3749 48.1752 37.8812C48.4872 37.3792 48.8902 36.9966 49.3842 36.7333C49.8868 36.4617 50.4285 36.326 51.0092 36.326C51.6332 36.326 52.1835 36.4576 52.6602 36.7209C53.1455 36.9842 53.5225 37.3628 53.7912 37.8565C54.0685 38.3502 54.2072 38.9386 54.2072 39.6215C54.2072 39.7038 54.2072 39.7861 54.2072 39.8684C54.2072 39.9507 54.2028 40.0206 54.1942 40.0782H48.9552C49.0072 40.7447 49.2325 41.2508 49.6312 41.5964C50.0385 41.942 50.5108 42.1148 51.0482 42.1148C51.4468 42.1148 51.8065 42.0325 52.1272 41.8679C52.4478 41.7034 52.6862 41.4071 52.8422 40.9792H54.1032C53.9732 41.4647 53.7522 41.8679 53.4402 42.1888C53.1282 42.5015 52.7642 42.736 52.3482 42.8924C51.9322 43.0405 51.4988 43.1145 51.0482 43.1145ZM50.9962 37.3257C50.4935 37.3257 50.0428 37.4903 49.6442 37.8195C49.2455 38.1404 49.0158 38.6094 48.9552 39.2265H52.9592C52.9072 38.593 52.6948 38.1198 52.3222 37.8071C51.9582 37.4862 51.5162 37.3257 50.9962 37.3257ZM57.6693 42.9047C57.1233 42.9047 56.6899 42.7772 56.3692 42.5221C56.0572 42.2588 55.9012 41.8268 55.9012 41.2261V37.4985H54.8872V36.5358H55.3032C55.5892 36.5358 55.7799 36.4864 55.8753 36.3877C55.9706 36.2889 56.0182 36.1079 56.0182 35.8446V34.8572H57.1232V36.5358H58.7093V37.4985H57.1232V41.0286C57.1232 41.3659 57.2056 41.5964 57.3702 41.7198C57.5349 41.835 57.7689 41.8926 58.0722 41.8926H58.7093V42.9047H57.6693ZM62.011 42.9047C61.465 42.9047 61.0317 42.7772 60.711 42.5221C60.399 42.2588 60.243 41.8268 60.243 41.2261V37.4985H59.229V36.5358H59.645C59.931 36.5358 60.1217 36.4864 60.217 36.3877C60.3123 36.2889 60.36 36.1079 60.36 35.8446V34.8572H61.465V36.5358H63.051V37.4985H61.465V41.0286C61.465 41.3659 61.5473 41.5964 61.712 41.7198C61.8767 41.835 62.1107 41.8926 62.414 41.8926H63.051V42.9047H62.011ZM67.1458 43.1145C66.5218 43.1145 65.9585 42.9788 65.4558 42.7072C64.9531 42.4357 64.5545 42.0448 64.2598 41.5346C63.9651 41.0162 63.8178 40.3991 63.8178 39.6832C63.8178 38.9756 63.9695 38.3749 64.2728 37.8812C64.5848 37.3792 64.9878 36.9966 65.4818 36.7333C65.9845 36.4617 66.5261 36.326 67.1068 36.326C67.7308 36.326 68.2812 36.4576 68.7578 36.7209C69.2431 36.9842 69.6201 37.3628 69.8888 37.8565C70.1662 38.3502 70.3048 38.9386 70.3048 39.6215C70.3048 39.7038 70.3048 39.7861 70.3048 39.8684C70.3048 39.9507 70.3005 40.0206 70.2918 40.0782H65.0528C65.1048 40.7447 65.3301 41.2508 65.7288 41.5964C66.1361 41.942 66.6085 42.1148 67.1458 42.1148C67.5445 42.1148 67.9042 42.0325 68.2248 41.8679C68.5455 41.7034 68.7838 41.4071 68.9398 40.9792H70.2008C70.0708 41.4647 69.8498 41.8679 69.5378 42.1888C69.2258 42.5015 68.8618 42.736 68.4458 42.8924C68.0298 43.0405 67.5965 43.1145 67.1458 43.1145ZM67.0938 37.3257C66.5911 37.3257 66.1405 37.4903 65.7418 37.8195C65.3432 38.1404 65.1135 38.6094 65.0528 39.2265H69.0568C69.0048 38.593 68.7925 38.1198 68.4198 37.8071C68.0558 37.4862 67.6138 37.3257 67.0938 37.3257ZM71.6479 42.9047V36.5358H72.8179V37.8441C72.9825 37.4327 73.2512 37.1036 73.6239 36.8567C74.0052 36.6016 74.4385 36.4741 74.9239 36.4741H75.4179V37.5849H74.8459C74.1439 37.5849 73.6369 37.7701 73.3249 38.1404C73.0215 38.5107 72.8699 38.9879 72.8699 39.5721V42.9047H71.6479ZM79.8168 42.9047V34.1413H81.1168V37.8812H85.9269V34.1413H87.2269V42.9047H85.9269V38.9427H81.1168V42.9047H79.8168ZM92.1556 43.1145C91.5316 43.1145 90.9685 42.9788 90.4656 42.7072C89.9626 42.4357 89.5645 42.0448 89.2696 41.5346C88.9746 41.0162 88.8276 40.3991 88.8276 39.6832C88.8276 38.9756 88.9795 38.3749 89.2826 37.8812C89.5946 37.3792 89.9976 36.9966 90.4916 36.7333C90.9945 36.4617 91.5356 36.326 92.1166 36.326C92.7406 36.326 93.2906 36.4576 93.7676 36.7209C94.2526 36.9842 94.6296 37.3628 94.8986 37.8565C95.1756 38.3502 95.3146 38.9386 95.3146 39.6215C95.3146 39.7038 95.3146 39.7861 95.3146 39.8684C95.3146 39.9507 95.3105 40.0206 95.3016 40.0782H90.0626C90.1146 40.7447 90.3396 41.2508 90.7386 41.5964C91.1456 41.942 91.6185 42.1148 92.1556 42.1148C92.5545 42.1148 92.9136 42.0325 93.2346 41.8679C93.5555 41.7034 93.7936 41.4071 93.9496 40.9792H95.2106C95.0806 41.4647 94.8596 41.8679 94.5476 42.1888C94.2356 42.5015 93.8716 42.736 93.4556 42.8924C93.0396 43.0405 92.6065 43.1145 92.1556 43.1145ZM92.1036 37.3257C91.6006 37.3257 91.1505 37.4903 90.7516 37.8195C90.3526 38.1404 90.1235 38.6094 90.0626 39.2265H94.0666C94.0146 38.593 93.8025 38.1198 93.4296 37.8071C93.0656 37.4862 92.6236 37.3257 92.1036 37.3257ZM98.5556 43.0898C97.8967 43.0898 97.3556 42.9335 96.9306 42.6208C96.5057 42.2999 96.2936 41.8268 96.2936 41.2014C96.2936 40.6089 96.5016 40.144 96.9176 39.8067C97.3426 39.4611 97.9487 39.2389 98.7376 39.1401L100.844 38.8809V38.6711C100.844 38.2185 100.701 37.8771 100.415 37.6467C100.129 37.4162 99.7386 37.3011 99.2446 37.3011C98.8457 37.3011 98.4906 37.3875 98.1786 37.5603C97.8756 37.7248 97.7236 37.9882 97.7236 38.3502C97.7236 38.3831 97.7236 38.416 97.7236 38.4489C97.7236 38.4819 97.7277 38.5189 97.7366 38.56H96.6056C96.5886 38.4613 96.5796 38.3625 96.5796 38.2638C96.5796 37.8606 96.7007 37.515 96.9436 37.227C97.1866 36.939 97.5116 36.7168 97.9186 36.5605C98.3257 36.4041 98.7766 36.326 99.2706 36.326C99.7996 36.326 100.272 36.4165 100.688 36.5975C101.113 36.7703 101.446 37.0295 101.689 37.3751C101.94 37.7207 102.066 38.1527 102.066 38.6711V41.4236C102.066 41.7692 102.239 41.942 102.586 41.942H102.807V42.9047H102.209C101.819 42.9047 101.524 42.8224 101.325 42.6578C101.126 42.485 101.017 42.2382 101 41.9173C100.749 42.3205 100.398 42.6167 99.9466 42.806C99.4957 42.9952 99.0326 43.0898 98.5556 43.0898ZM97.5416 41.0656C97.5416 41.403 97.6586 41.6622 97.8926 41.8432C98.1356 42.0243 98.4606 42.1148 98.8676 42.1148C99.4567 42.1148 99.9336 41.9461 100.298 41.6087C100.662 41.2631 100.844 40.8311 100.844 40.3127V39.7573L98.9456 39.9918C98.4947 40.0494 98.1486 40.1646 97.9056 40.3374C97.6627 40.5019 97.5416 40.7447 97.5416 41.0656ZM105.361 42.9047C104.459 42.9047 104.009 42.4727 104.009 41.6087V33.771H105.231V41.3618C105.231 41.7157 105.408 41.8926 105.764 41.8926H106.024V42.9047H105.361ZM109.263 42.9047C108.717 42.9047 108.284 42.7772 107.963 42.5221C107.651 42.2588 107.495 41.8268 107.495 41.2261V37.4985H106.481V36.5358H106.897C107.183 36.5358 107.374 36.4864 107.469 36.3877C107.565 36.2889 107.612 36.1079 107.612 35.8446V34.8572H108.717V36.5358H110.303V37.4985H108.717V41.0286C108.717 41.3659 108.8 41.5964 108.964 41.7198C109.129 41.835 109.363 41.8926 109.666 41.8926H110.303V42.9047H109.263ZM111.512 42.9047V33.771H112.734V37.4985C112.968 37.0871 113.293 36.7909 113.709 36.6099C114.125 36.4206 114.545 36.326 114.97 36.326C115.412 36.326 115.819 36.4206 116.192 36.6099C116.573 36.7909 116.877 37.0665 117.102 37.4368C117.336 37.8071 117.453 38.2679 117.453 38.8192V42.9047H116.231V39.0291C116.231 38.4942 116.088 38.0787 115.802 37.7824C115.516 37.4779 115.117 37.3257 114.606 37.3257C114.259 37.3257 113.943 37.4039 113.657 37.5603C113.371 37.7084 113.146 37.9182 112.981 38.1897C112.816 38.453 112.734 38.7658 112.734 39.1278V42.9047H111.512ZM121.506 38.7205C121.021 38.7205 120.574 38.6217 120.167 38.4243C119.768 38.2185 119.448 37.9305 119.205 37.5603C118.971 37.19 118.854 36.7497 118.854 36.2396C118.854 35.7294 118.971 35.2933 119.205 34.9312C119.448 34.5609 119.768 34.2771 120.167 34.0796C120.574 33.8738 121.021 33.771 121.506 33.771C121.991 33.771 122.433 33.8738 122.832 34.0796C123.231 34.2771 123.547 34.5609 123.781 34.9312C124.024 35.2933 124.145 35.7294 124.145 36.2396C124.145 36.7497 124.024 37.19 123.781 37.5603C123.547 37.9305 123.231 38.2185 122.832 38.4243C122.433 38.6217 121.991 38.7205 121.506 38.7205ZM121.506 38.2021C121.87 38.2021 122.208 38.128 122.52 37.9799C122.832 37.8235 123.083 37.6014 123.274 37.3134C123.473 37.0172 123.573 36.6592 123.573 36.2396C123.573 35.8117 123.473 35.4537 123.274 35.1657C123.083 34.8778 122.832 34.6597 122.52 34.5116C122.208 34.3635 121.87 34.2894 121.506 34.2894C121.142 34.2894 120.8 34.3635 120.479 34.5116C120.167 34.6597 119.911 34.8778 119.712 35.1657C119.521 35.4537 119.426 35.8117 119.426 36.2396C119.426 36.6592 119.521 37.0172 119.712 37.3134C119.911 37.6014 120.167 37.8235 120.479 37.9799C120.8 38.128 121.142 38.2021 121.506 38.2021ZM120.544 37.5232V34.9065H121.636C121.948 34.9065 122.191 34.9888 122.364 35.1534C122.546 35.3098 122.637 35.5113 122.637 35.7582C122.637 36.1038 122.472 36.3507 122.143 36.4988L122.65 37.5232H122.013L121.597 36.6345H121.129V37.5232H120.544ZM121.545 35.3632H121.129V36.1779H121.545C121.892 36.1779 122.065 36.0421 122.065 35.7705C122.065 35.499 121.892 35.3632 121.545 35.3632Z" fill="#7D3F98"/>
</svg>
