<svg width="120" height="87" viewBox="0 0 120 87" fill="none" xmlns="http://www.w3.org/2000/svg">
<path d="M34.9093 21.2364C34.9093 22.0822 35.0608 25.7677 35.4548 28.4562C35.2729 28.9999 34.0002 29.2114 33.6972 28.7885C32.4548 24.4687 29.4548 22.1729 24.9396 22.1729C19.7881 22.1729 14.2426 26.5833 14.2426 35.7968C14.2426 45.0104 19.6063 49.9947 25.182 49.9947C30.8184 49.9947 33.4245 45.9468 34.6669 42.8051C35.0305 42.4426 36.1517 42.5635 36.4245 43.1374C36.0911 46.5812 35.3032 49.3604 34.6669 50.4176C32.1517 51.1124 28.8487 52.1395 25.2123 52.1395C20.6669 52.1395 16.0002 51.0822 12.6972 48.6051C9.33354 46.0676 6.78809 42.201 6.78809 36.4614C6.78809 30.8124 9.21233 26.8249 12.4245 24.1666C15.7578 21.4177 20.4851 20.0281 25.3335 20.0281C30.0911 20.0281 33.5154 21.1458 34.9093 21.2364Z" fill="#003057"/>
<path d="M40 22.2635C39.6363 21.901 39.6363 20.7832 40.1515 20.6322C41.7272 20.7228 43.7272 20.7832 46 20.7832C47.5454 20.7832 48.8787 20.7832 50.5454 20.6322C50.5454 23.502 52.1818 26.3416 54.2121 30.6916L57.2727 37.2166C57.6969 38.153 59.3636 41.053 60.0303 42.2312C60.6363 41.1135 61.3939 39.6937 62.6363 36.9447L65 31.8395C67.2424 27.0666 68.3939 24.6197 69.4242 20.6322C71.5757 20.8135 72.6363 20.7832 74.0303 20.7832C75.5757 20.7832 77.6969 20.7228 79.3939 20.6322C79.909 20.9041 79.909 21.7801 79.5454 22.2635L78.1818 22.5051C76.2727 22.8374 75.3333 23.3812 75.3333 25.8582C75.3333 35.4041 75.4242 40.4187 75.6969 46.2489C75.7878 48.3937 75.9697 49.4812 77.7878 49.7228L79.2727 49.9041C79.6363 50.2666 79.6363 51.3541 79.1818 51.5353C77.0302 51.4447 75.0303 51.3843 72.7575 51.3843C70.6666 51.3843 68.0909 51.4447 65.8787 51.5353C65.3333 51.2937 65.2727 50.2364 65.7272 49.9041L67.1212 49.7228C69.2727 49.451 69.2727 48.877 69.2727 46.0676L69.1818 34.0145V28.6978H69.0909C65.6363 36.1291 61.9393 43.8624 58.8484 51.6864C58.606 51.8676 58.303 52.0187 57.909 52.0187C57.4848 52.0187 56.9697 51.928 56.6969 51.7468C54.8787 46.0072 49.1515 34.4978 46.5454 28.4562H46.4545C46.2727 31.477 46.2121 33.501 46.1818 35.9176C46.1212 38.9385 46.0909 43.5603 46.0909 46.3395C46.0909 48.6655 46.3636 49.2999 48.2424 49.5718L50.0606 49.8437C50.4242 50.176 50.3333 51.2332 49.9697 51.4749C48.2424 51.3843 46.2424 51.3239 44.4848 51.3239C43 51.3239 41.2424 51.3843 39.3636 51.4749C38.7575 51.2937 38.7575 50.0853 39.1818 49.8437L40.0303 49.6926C42.3939 49.2697 42.6666 48.9978 42.9697 46.128C43.2121 43.8624 43.3333 39.8145 43.606 35.4041C43.7878 32.2926 43.8787 28.5468 43.8787 26.0395C43.8787 23.4114 42.8484 22.6864 41 22.3843L40 22.2635Z" fill="#D0006C"/>
<path d="M114.031 35.9177C114.031 46.0374 107.243 52.1093 97.2428 52.1093C87.8792 52.1093 81.0913 45.977 81.0913 36.3104C81.0913 27.127 87.9701 20.0281 97.6974 20.0281C107.394 20.0281 114.031 26.5229 114.031 35.9177ZM97.3337 22.1729C91.6065 22.1729 88.5459 27.5197 88.5459 35.2531C88.5459 40.902 90.5459 49.9947 98.1216 49.9947C104.213 49.9947 106.576 44.0739 106.576 36.552C106.576 28.6072 103.091 22.1729 97.3337 22.1729Z" fill="#003057"/>
<path d="M5.84863 57.5469H114.546" stroke="#D0006C" stroke-miterlimit="10"/>
<path d="M6.6061 63.6791H5.45459V63.226H8.30307V63.6791H7.15156V66.9114H6.6061V63.6791Z" fill="#D0006C"/>
<path d="M9.51517 63.226H10.0606V64.7666H11.8182V63.226H12.3637V66.9114H11.8182V65.2197H10.0303V66.9114H9.48486V63.226H9.51517Z" fill="#D0006C"/>
<path d="M14 63.226H16.0606V63.6791H14.5152V64.7666H15.9091V65.2197H14.5152V66.428H16.0606V66.8812H13.9697V63.226H14Z" fill="#D0006C"/>
<path d="M22.2727 63.8302C22.0303 63.6791 21.7878 63.6187 21.5151 63.6187C20.6666 63.6187 20.0909 64.2229 20.0909 65.0687C20.0909 65.9447 20.7272 66.5187 21.4848 66.5187C21.7575 66.5187 22.0909 66.4583 22.303 66.3375L22.3333 66.851C22.0606 66.9718 21.6969 66.9718 21.4848 66.9718C20.303 66.9718 19.5454 66.2166 19.5454 65.0385C19.5454 63.8906 20.3636 63.1354 21.5151 63.1354C21.7878 63.1354 22.0909 63.1656 22.3636 63.2864L22.2727 63.8302Z" fill="#D0006C"/>
<path d="M24.7881 63.226H25.3336L26.9093 66.9114H26.3336L25.9699 65.9749H24.1518L23.7881 66.9114H23.2427L24.7881 63.226ZM25.0609 63.7093L24.3336 65.552H25.8184L25.0609 63.7093Z" fill="#D0006C"/>
<path d="M28.0606 63.226H28.9697C29.697 63.226 30.3939 63.3468 30.3939 64.2228C30.3939 64.676 30.0606 64.978 29.6364 65.0687C29.7879 65.1291 29.8788 65.2197 30 65.4312L30.697 66.9114H30.0909L29.5152 65.6426C29.3636 65.2801 29.1818 65.2801 28.8788 65.2801H28.5455V66.9114H28V63.226H28.0606ZM28.6061 64.7968H29.0606C29.5758 64.7968 29.8485 64.5853 29.8485 64.2228C29.8485 63.8905 29.6061 63.6791 29.0909 63.6791H28.5758L28.6061 64.7968Z" fill="#D0006C"/>
<path d="M32.0303 63.226H34.1212V63.6791H32.5757V64.7666H33.9697V65.2197H32.5757V66.428H34.1212V66.8812H32.0303V63.226Z" fill="#D0006C"/>
<path d="M37.7578 63.226H38.6366L39.7881 66.3072L40.9396 63.226H41.8184V66.9114H41.273V63.7093L40.0608 66.9114H39.5457L38.3336 63.7093V66.9114H37.7881L37.7578 63.226Z" fill="#D0006C"/>
<path d="M44.606 63.226H45.1515L46.7272 66.9114H46.1515L45.7878 65.9749H43.9696L43.606 66.9114H43.0605L44.606 63.226ZM44.8484 63.7093L44.1212 65.552H45.606L44.8484 63.7093Z" fill="#D0006C"/>
<path d="M47.9092 63.226H48.6365L50.2728 66.1864V63.226H50.8183V66.9114H50.1516L48.4849 63.8603V66.9114H47.9395L47.9092 63.226Z" fill="#D0006C"/>
<path d="M53.5757 63.226H54.1212L55.6969 66.9114H55.1212L54.7575 65.9749H52.9394L52.5757 66.9114H52.0303L53.5757 63.226ZM53.8485 63.7093L53.1212 65.552H54.606L53.8485 63.7093Z" fill="#D0006C"/>
<path d="M59.6972 63.8603C59.4245 63.6791 59.1518 63.6187 58.6669 63.6187C57.8185 63.6187 57.2427 64.253 57.2427 65.0686C57.2427 65.9447 57.8791 66.5186 58.6366 66.5186C59.0003 66.5186 59.0912 66.4884 59.2427 66.4582V65.3405H58.4851V64.9176H59.7881V66.8509C59.576 66.9114 59.2427 67.002 58.6669 67.002C57.4851 67.002 56.7275 66.2468 56.7275 65.0686C56.7275 63.9207 57.5457 63.1655 58.6972 63.1655C59.2427 63.1655 59.4851 63.2561 59.7881 63.3468L59.6972 63.8603Z" fill="#D0006C"/>
<path d="M61.4243 63.226H63.5152V63.6791H61.9698V64.7666H63.3637V65.2197H61.9698V66.428H63.5152V66.8812H61.4243V63.226Z" fill="#D0006C"/>
<path d="M65 63.226H65.8788L67.0303 66.3072L68.1818 63.226H69.0606V66.9114H68.5152V63.7093L67.303 66.9114H66.7879L65.5758 63.7093V66.9114H65.0303L65 63.226Z" fill="#D0006C"/>
<path d="M70.6968 63.226H72.7877V63.6791H71.212V64.7666H72.6059V65.2197H71.212V66.428H72.7574V66.8812H70.6665L70.6968 63.226Z" fill="#D0006C"/>
<path d="M74.2729 63.226H75.0002L76.6366 66.1864V63.226H77.182V66.9114H76.5154L74.8487 63.8603V66.9114H74.3032L74.2729 63.226Z" fill="#D0006C"/>
<path d="M79.5153 63.6791H78.3638V63.226H81.2123V63.6791H80.0607V66.9114H79.5153V63.6791Z" fill="#D0006C"/>
<path d="M87.0608 63.8302C86.8183 63.6791 86.5759 63.6187 86.3032 63.6187C85.4547 63.6187 84.879 64.2229 84.879 65.0687C84.879 65.9447 85.5153 66.5187 86.2729 66.5187C86.5456 66.5187 86.879 66.4583 87.0911 66.3375L87.1214 66.851C86.8487 66.9718 86.485 66.9718 86.2729 66.9718C85.0911 66.9718 84.3335 66.2166 84.3335 65.0385C84.3335 63.8906 85.1517 63.1354 86.3032 63.1354C86.5759 63.1354 86.879 63.1656 87.1517 63.2864L87.0608 63.8302Z" fill="#D0006C"/>
<path d="M90.0003 63.1655C91.1215 63.1655 91.7882 63.9811 91.7882 65.0686C91.7882 66.1864 91.1215 66.9718 90.0003 66.9718C88.8791 66.9718 88.2124 66.1864 88.2124 65.0686C88.2124 63.9811 88.8791 63.1655 90.0003 63.1655ZM90.0003 66.5186C90.8488 66.5186 91.2124 65.8239 91.2124 65.0686C91.2124 64.3134 90.8185 63.6187 90.0003 63.6187C89.1821 63.6187 88.7882 64.3134 88.7882 65.0686C88.7882 65.7936 89.1518 66.5186 90.0003 66.5186Z" fill="#D0006C"/>
<path d="M93.2119 63.226H94.0907L95.2422 66.3072L96.3937 63.226H97.2725V66.9114H96.7271V63.7093L95.5149 66.9114H94.9998L93.7877 63.7093V66.9114H93.2422L93.2119 63.226Z" fill="#D0006C"/>
<path d="M98.8486 63.226H99.8183C100.576 63.226 101.212 63.4978 101.212 64.3437C101.212 65.1593 100.576 65.4614 99.9092 65.4614H99.3941V66.9416H98.8486V63.226ZM99.3638 64.978H99.8789C100.212 64.978 100.637 64.827 100.637 64.3134C100.637 63.8603 100.152 63.6791 99.8183 63.6791H99.3638V64.978Z" fill="#D0006C"/>
<path d="M103.455 63.226H104L105.576 66.9114H105L104.636 65.9749H102.818L102.455 66.9114H101.909L103.455 63.226ZM103.727 63.7093L103 65.552H104.485L103.727 63.7093Z" fill="#D0006C"/>
<path d="M106.758 63.226H107.485L109.121 66.1864V63.226H109.667V66.9114H109L107.334 63.8603V66.9114H106.788L106.758 63.226Z" fill="#D0006C"/>
<path d="M112.303 65.3707L110.849 63.226H111.455L112.546 64.8874L113.637 63.226H114.273L112.818 65.3707V66.9114H112.273L112.303 65.3707Z" fill="#D0006C"/>
</svg>
