<svg width="130" height="30" viewBox="0 0 130 30" fill="none" xmlns="http://www.w3.org/2000/svg">
<path d="M26.0347 1.14893C21.8412 2.68084 17.9097 5.10637 14.153 8.68084C11.0078 11.617 8.0374 15.3191 5.2417 19.9149C8.38686 22.4681 11.3573 25.6596 14.0656 29.4894C16.774 25.6596 19.8318 22.5957 22.8895 19.9149L26.0347 1.14893Z" fill="#EEB111"/>
<path d="M1.92188 1.14893L5.1544 20.0425C8.03747 15.4468 11.0079 11.7447 14.0657 8.8085C10.309 4.97871 6.11542 2.68084 1.92188 1.14893Z" fill="#490E67"/>
<path d="M38.7903 22.9787H32.4126V8.68085H38.7903V11.234H34.422V14.5532H38.2661V16.9787H34.422V20.4255H38.7903V22.9787Z" fill="#490E67"/>
<path d="M48.8371 11.4893C50.0603 11.4893 51.0213 12.5106 51.0213 14.9361V22.9787H49.0119V16.0851C49.0119 14.8085 48.7498 14.0425 47.8761 14.0425C47.1772 14.0425 46.4783 14.6808 46.4783 16.851V22.9787H44.5562V16.0851C44.5562 14.8085 44.2941 14.0425 43.5078 14.0425C42.8089 14.0425 42.11 14.8085 42.11 16.851V22.9787H40.1006V11.7446H41.7605L42.0226 13.9148C42.3721 12.2553 43.2457 11.4893 44.3815 11.4893C45.4299 11.4893 46.2162 12.1276 46.3909 13.9148C46.8277 12.2553 47.7888 11.4893 48.8371 11.4893Z" fill="#490E67"/>
<path d="M53.9921 22.9787H52.5942V6.76593H54.6036V13.9149C54.9531 12.1276 55.9141 11.4893 57.0499 11.4893C58.8846 11.4893 60.0203 13.5319 60.0203 17.1064C60.0203 20.6808 58.7972 23.234 56.7878 23.234C55.4773 23.234 54.7784 22.3404 54.5163 21.3191L53.9921 22.9787ZM54.6036 18.383C54.6036 20.4255 55.4773 21.0638 56.1762 21.0638C57.2246 21.0638 58.0109 19.9149 58.0109 17.234C58.0109 14.8085 57.3993 13.6595 56.2636 13.6595C55.3899 13.6595 54.5163 14.6808 54.5163 16.4681L54.6036 18.383Z" fill="#490E67"/>
<path d="M64.2135 22.851C63.7767 22.9787 63.4272 23.1064 63.0778 23.1064C62.0294 23.1064 61.0684 22.3404 61.0684 20.4255V6.76593H63.0778V19.6595C63.0778 20.2978 63.3399 20.6808 63.7767 20.6808C63.9514 20.6808 64.1262 20.6808 64.3882 20.5532L64.2135 22.851Z" fill="#490E67"/>
<path d="M69.8924 19.4042L71.5523 20.1702C71.2028 22.468 69.805 23.234 68.3198 23.234C66.1356 23.234 64.7378 21.1914 64.7378 17.4893C64.7378 13.6595 66.1356 11.4893 68.4072 11.4893C70.5039 11.4893 71.5523 13.5319 71.5523 16.3404C71.5523 16.851 71.5523 17.3617 71.4649 17.8723H66.6598C66.6598 19.7872 67.2714 21.0638 68.4072 21.0638C69.1061 21.0638 69.6303 20.6808 69.8924 19.4042ZM69.7176 16.2127C69.7176 16.0851 69.7176 15.9574 69.7176 15.8297C69.7176 14.6808 69.2808 13.7872 68.3198 13.7872C67.4461 13.7872 66.8346 14.8085 66.7472 16.3404H69.7176V16.2127Z" fill="#490E67"/>
<path d="M81.5119 11.4893C82.735 11.4893 83.6961 12.5106 83.6961 14.9361V22.9787H81.6866V16.0851C81.6866 14.8085 81.4245 14.0425 80.5509 14.0425C79.852 14.0425 79.153 14.6808 79.153 16.851V22.9787H77.1436V16.0851C77.1436 14.8085 76.8815 14.0425 76.0952 14.0425C75.3963 14.0425 74.6974 14.8085 74.6974 16.851V22.9787H72.688V11.7446H74.3479L74.61 13.9148C75.0469 12.2553 75.9205 11.4893 76.9689 11.4893C78.0173 11.4893 78.8036 12.1276 78.9783 13.9148C79.5025 12.2553 80.4635 11.4893 81.5119 11.4893Z" fill="#490E67"/>
<path d="M85.4434 22.9787V8.68085H87.4528V14.4255H91.559V8.68085H93.5684V22.9787H91.559V16.9787H87.4528V22.9787H85.4434Z" fill="#490E67"/>
<path d="M100.033 19.4042L101.693 20.1702C101.344 22.468 99.9461 23.234 98.4609 23.234C96.2768 23.234 94.8789 21.1914 94.8789 17.4893C94.8789 13.6595 96.2768 11.4893 98.5483 11.4893C100.645 11.4893 101.693 13.5319 101.693 16.3404C101.693 16.851 101.693 17.3617 101.606 17.8723H96.801C96.801 19.7872 97.4125 21.0638 98.5483 21.0638C99.2472 21.0638 99.7714 20.6808 100.033 19.4042ZM99.7714 16.2127C99.7714 16.0851 99.7714 15.9574 99.7714 15.8297C99.7714 14.6808 99.3346 13.7872 98.3735 13.7872C97.4999 13.7872 96.8883 14.8085 96.801 16.3404H99.7714V16.2127Z" fill="#490E67"/>
<path d="M108.77 19.7872C108.77 20.5531 109.032 20.8085 109.294 20.8085C109.469 20.8085 109.557 20.8085 109.731 20.6808V22.851C109.469 23.1063 109.12 23.234 108.596 23.234C107.634 23.234 107.023 22.7234 106.848 21.4468C106.499 22.851 105.625 23.3617 104.577 23.3617C103.179 23.3617 102.305 22.2127 102.305 20.2978C102.305 17.7446 103.703 16.468 106.673 16.5957V15.4468C106.673 14.4255 106.324 13.7872 105.625 13.7872C104.926 13.7872 104.577 14.4255 104.489 15.4468L102.567 14.9361C102.655 12.5106 104.052 11.4893 105.712 11.4893C107.46 11.4893 108.596 12.5106 108.596 15.0638V19.7872H108.77ZM106.761 18.1276C105.014 18.1276 104.402 18.6383 104.402 19.7872C104.402 20.5531 104.751 21.0638 105.363 21.0638C105.975 21.0638 106.761 20.5531 106.761 19.4042V18.1276Z" fill="#490E67"/>
<path d="M113.663 22.851C113.226 22.9787 112.876 23.1064 112.527 23.1064C111.479 23.1064 110.518 22.3404 110.518 20.4255V6.76593H112.527V19.6595C112.527 20.2978 112.789 20.6808 113.226 20.6808C113.401 20.6808 113.575 20.6808 113.837 20.5532L113.663 22.851Z" fill="#490E67"/>
<path d="M119.341 22.468C118.73 22.851 118.031 23.1063 117.157 23.1063C115.672 23.1063 114.711 22.0851 114.711 19.6595V14.0425H113.575V11.7446H114.711V9.44676L116.72 9.06378V11.7446H118.992V14.0425H116.72V19.1489C116.72 20.2978 117.07 20.8085 117.681 20.8085C118.118 20.8085 118.555 20.5531 118.992 20.1702L119.341 22.468Z" fill="#490E67"/>
<path d="M122.137 13.9149C122.486 12.2553 123.36 11.4893 124.496 11.4893C125.719 11.4893 126.767 12.5106 126.767 15.0638V22.9787H124.758V16.0851C124.758 14.8085 124.496 14.0425 123.622 14.0425C122.836 14.0425 122.049 14.6808 122.049 16.851V22.9787H120.04V6.76593H122.049L122.137 13.9149Z" fill="#490E67"/>
</svg>
