<svg width="136" height="35" viewBox="0 0 136 35" fill="none" xmlns="http://www.w3.org/2000/svg">
<g clip-path="url(#clip0_264_33)">
<path d="M19.9521 23.1103C21.3902 18.0662 21.2287 15.0089 18.8005 10.8294C15.6741 5.48164 6.90442 3.8243 2.64726 1.56474C1.11009 0.756648 0.630704 0.139001 0.260742 0.308854C1.47867 1.80149 2.87883 3.13958 4.42932 4.29268C6.33645 5.66179 15.6324 12.2912 19.9521 23.1103Z" fill="#81BD41"/>
<path d="M20.228 32.5912C21.1242 29.9147 20.0612 27.0478 19.5245 25.6015C16.2687 17.3773 11.0529 10.0501 4.31964 4.24117L4.41865 4.31323C2.86815 3.16014 1.46799 1.82204 0.250064 0.329407C0.250064 0.329407 0.2188 0.329407 0.208379 0.370583C-0.0573686 1.04999 1.18799 1.88382 1.99566 4.94117C3.55888 10.8345 1.61527 16.8309 13.8553 22.3434C18.9878 24.6544 19.7225 28.1338 18.894 30.7845C19.2359 31.0743 19.5404 31.4045 19.8007 31.7676C19.9743 32.0286 20.1243 32.3042 20.2488 32.5912" fill="#81BD41"/>
<path d="M98.7171 26.0029H102.365V12.4971H98.7171V26.0029ZM98.665 8.50294H102.385V5.73383H98.665V8.50294Z" fill="#323438"/>
<path d="M112.859 16.6456C112.859 19.1316 114.48 20.1971 117.111 20.4287L119.404 20.6346C120.55 20.7427 120.941 21.2059 120.941 21.8802C120.941 22.9096 119.628 23.2802 118.367 23.2802C117.252 23.2802 115.063 23.1258 113.86 22.0088L112.614 24.9221C114.459 26.1522 116.017 26.1625 118.315 26.1625C121.754 26.1625 124.495 24.7316 124.495 21.7515C124.495 19.4713 123.041 18.0456 120.159 17.7831L117.867 17.5772C116.58 17.4743 116.356 16.903 116.356 16.4088C116.356 15.7397 116.97 15.1169 118.44 15.1169C119.701 15.1169 121.332 15.328 122.166 16.028L123.494 13.4905C121.785 12.5588 120.759 12.3375 118.497 12.3375C115.532 12.3375 112.875 13.8456 112.875 16.6456" fill="#323438"/>
<path d="M126.475 7.84412V12.8676H124.912V15.4412H126.475V22.1324C126.475 24.0522 127.731 25.9926 130.696 25.9926H132.681V23.1618H131.368C131.199 23.1862 131.026 23.1717 130.864 23.1194C130.702 23.0671 130.554 22.9783 130.433 22.8601C130.311 22.742 130.219 22.5975 130.163 22.4382C130.108 22.2789 130.09 22.109 130.112 21.9419V15.4412H132.681V12.8676H130.112V7.84412H126.475Z" fill="#323438"/>
<path d="M112.249 12.353C110.887 12.3415 109.576 12.8634 108.602 13.8044V12.4971H105.043V26.003H108.69V17.8655C108.69 16.1515 109.905 15.328 111.025 15.328C111.412 15.3362 111.799 15.3689 112.182 15.4258L113.021 12.3375C112.896 12.3375 112.765 12.3375 112.625 12.3375H112.265" fill="#323438"/>
<path d="M94.9185 5.71326C91.9484 5.71326 90.6613 7.65885 90.6613 9.5787V12.8677H89.2075C89.2075 13.8611 89.2075 14.7206 89.2075 15.2868V15.4412H90.6665V25.9927H94.314V15.4412H97.0028V12.8677H94.314V9.77943C94.2932 9.612 94.3114 9.44204 94.3677 9.28279C94.424 9.12354 94.5167 8.97927 94.6387 8.86125C94.7611 8.74323 94.9091 8.6546 95.0712 8.60225C95.2337 8.54996 95.4062 8.53534 95.575 8.55958H97.0028V5.71326H94.9185Z" fill="#323438"/>
<path d="M26.5745 26.0029V17.3867C26.5745 15.0036 27.8668 13.7323 30.2794 13.7117C32.6919 13.6911 33.88 14.9728 33.9269 17.3867V26.0029H35.6829V17.1448C35.7134 16.4821 35.6057 15.8203 35.3663 15.2005C35.127 14.5807 34.7612 14.0161 34.2916 13.5419C33.2442 12.6257 31.8745 12.1525 30.4774 12.2242C29.766 12.1966 29.0563 12.3103 28.3904 12.5588C27.7244 12.8072 27.1158 13.1853 26.6006 13.6706V5.53821H24.8394V26.0029H26.5745Z" fill="#323438"/>
<path d="M59.814 26.003H61.5648V16.6147C61.6024 16.0107 61.5008 15.4061 61.2678 14.8463C61.0349 14.2865 60.6769 13.786 60.2205 13.3824C59.3086 12.6258 57.9434 12.2449 56.1092 12.2449C53.853 12.2449 52.3471 12.7133 51.159 14.3037L51.0652 14.4221L52.3575 15.4412L52.4565 15.3125C53.3163 14.1647 54.1969 13.7684 56.104 13.7375C58.8813 13.7684 59.7828 14.7669 59.8088 16.7485V18.1434H55.536C54.2532 18.0782 52.9849 18.4407 51.9354 19.1728C51.5021 19.5165 51.1566 19.956 50.9267 20.4557C50.6969 20.9554 50.589 21.5015 50.6119 22.05C50.5857 23.0819 50.9584 24.0849 51.654 24.8552C52.5711 25.7508 53.7383 26.0853 55.8226 26.0802C57.6203 26.0802 58.7406 25.7662 59.8401 24.8243L59.814 26.003ZM59.1002 23.589C58.1518 24.4383 57.0419 24.5412 55.7966 24.5412C53.3163 24.5412 52.3888 23.6302 52.3731 22.0037C52.3575 20.3772 53.4153 19.5794 55.7132 19.5588H59.814V21.0669C59.814 22.2302 59.5587 23.1875 59.1002 23.589Z" fill="#323438"/>
<path d="M78.5308 26.003V17.3456C78.5308 14.9677 79.8282 13.6912 82.2304 13.6757C84.6325 13.6603 85.8362 14.9316 85.8518 17.3456V26.003H87.6131V17.1088C87.6412 16.4464 87.5323 15.7853 87.2931 15.1658C87.0539 14.5464 86.6892 13.9816 86.2218 13.5059C85.1291 12.6303 83.7587 12.1637 82.3518 12.1882C80.9449 12.2127 79.5917 12.7267 78.5308 13.6397V5.5434H76.7695V26.003H78.5308Z" fill="#323438"/>
<path d="M74.5135 24.5154H73.8257C72.4396 24.5154 71.9029 23.8515 71.8768 22.5441V14.0566H74.972V12.7441H71.856V6.8147H70.1052V12.7441H68.2241V14.0566H70.1052V22.5184C70.0682 23.4344 70.3808 24.3308 70.9806 25.0301C71.3125 25.3654 71.7127 25.6273 72.1546 25.7985C72.5965 25.9698 73.0701 26.0465 73.5443 26.0235H74.5135V24.5154Z" fill="#323438"/>
<path d="M47.3288 23.0485H47.2976C46.8488 23.5246 46.3013 23.8993 45.6925 24.1471C45.0837 24.395 44.4278 24.5101 43.7699 24.4846C40.9665 24.4846 39.5336 22.8169 39.471 19.6H48.9806V18.8125C48.9806 16.7537 48.4595 15.1066 47.4956 13.9691C46.9788 13.3864 46.3356 12.9263 45.6138 12.6233C44.8921 12.3203 44.1104 12.1822 43.327 12.2191C42.535 12.1818 41.7453 12.3285 41.0212 12.6477C40.2972 12.9668 39.6591 13.4494 39.1584 14.0566C38.1892 15.2456 37.6733 16.9801 37.6733 19.1419C37.6733 21.3037 38.1944 23.1 39.2053 24.289C40.2162 25.4779 41.7273 26.0699 43.65 26.0699C44.5103 26.1137 45.3706 25.9823 46.1774 25.6839C46.9841 25.3856 47.7201 24.9265 48.3397 24.3353L47.3288 23.0485ZM39.9296 15.8838C40.2377 15.2501 40.7209 14.7153 41.3233 14.341C41.9258 13.9667 42.6231 13.7681 43.3348 13.7681C44.0465 13.7681 44.7437 13.9667 45.3462 14.341C45.9487 14.7153 46.4318 15.2501 46.74 15.8838C47.0587 16.5983 47.2153 17.3731 47.1986 18.1537H39.4658C39.4826 17.3742 39.6396 16.6038 39.9296 15.8787" fill="#323438"/>
<path d="M66.4214 5.5434H64.6602V26.0081H66.4214V5.5434Z" fill="#323438"/>
<path d="M134.562 7.20587C134.798 7.20901 135.031 7.26908 135.239 7.38087C135.462 7.49606 135.644 7.67564 135.76 7.89558C135.881 8.10203 135.944 8.33653 135.943 8.57499C135.943 8.81098 135.882 9.04301 135.766 9.24925C135.648 9.46842 135.466 9.64774 135.244 9.76396C135.038 9.88378 134.802 9.94601 134.562 9.94411C134.322 9.94478 134.087 9.8826 133.879 9.76396C133.658 9.64625 133.477 9.46733 133.358 9.24925C133.24 9.04337 133.178 8.81139 133.176 8.57499C133.176 8.33611 133.241 8.10161 133.363 7.89558C133.48 7.67564 133.662 7.49606 133.884 7.38087C134.093 7.26964 134.325 7.20963 134.562 7.20587ZM134.562 7.43234C134.365 7.4325 134.171 7.48211 133.999 7.57646C133.818 7.6724 133.669 7.81925 133.572 7.99852C133.47 8.17028 133.416 8.36566 133.415 8.56469C133.417 8.76136 133.469 8.95443 133.567 9.12572C133.666 9.30201 133.814 9.44664 133.994 9.54264C134.166 9.64141 134.362 9.69298 134.562 9.6919C134.761 9.6937 134.958 9.64213 135.13 9.54264C135.31 9.44664 135.458 9.30201 135.557 9.12572C135.655 8.95443 135.707 8.76136 135.708 8.56469C135.708 8.36566 135.653 8.17028 135.552 7.99852C135.455 7.81925 135.306 7.6724 135.125 7.57646C134.953 7.48211 134.759 7.4325 134.562 7.43234ZM133.963 9.31102V7.83896H134.484C134.61 7.8316 134.737 7.84555 134.859 7.88014C134.935 7.90443 135.002 7.95338 135.046 8.01911C135.091 8.08242 135.115 8.15803 135.114 8.23528C135.115 8.28681 135.105 8.33797 135.086 8.38573C135.066 8.43344 135.037 8.47678 135 8.51323C134.917 8.59383 134.808 8.64149 134.692 8.64705C134.738 8.66408 134.781 8.69039 134.817 8.72425C134.901 8.81211 134.974 8.90878 135.036 9.01249L135.218 9.29558H134.927L134.796 9.06911C134.733 8.94254 134.649 8.82766 134.546 8.7294C134.49 8.69116 134.422 8.67299 134.353 8.67793H134.213V9.29558L133.963 9.31102ZM134.197 8.49264H134.489C134.587 8.50283 134.686 8.48116 134.77 8.43087C134.794 8.41198 134.814 8.38764 134.827 8.35984C134.839 8.3321 134.845 8.30173 134.843 8.27131C134.844 8.22978 134.833 8.18881 134.812 8.15293C134.787 8.11633 134.75 8.08911 134.708 8.07572C134.629 8.06332 134.547 8.06332 134.468 8.07572H134.197V8.49264Z" fill="#323438"/>
<path d="M130.008 34.1559C130.398 34.5039 130.91 34.6885 131.436 34.6706C132.254 34.6706 132.79 34.2125 132.79 33.5949C132.79 32.3802 130.862 32.5295 130.862 31.8603C130.862 31.5412 131.165 31.4074 131.477 31.4074C131.817 31.4003 132.147 31.5176 132.405 31.7368L132.691 31.2221C132.359 30.9367 131.927 30.7908 131.488 30.8155C130.737 30.8155 130.128 31.1912 130.128 31.8449C130.128 33.0545 132.056 32.9155 132.056 33.5949C132.056 33.8986 131.743 34.0581 131.436 34.0581C131.034 34.0519 130.649 33.8977 130.357 33.6258L130.008 34.1559ZM127.533 34.6089H128.252V33.0956C128.25 32.8696 128.279 32.6444 128.34 32.4265C128.396 32.19 128.527 31.9775 128.716 31.8208C128.903 31.6641 129.137 31.5714 129.383 31.5567C129.452 31.55 129.522 31.55 129.591 31.5567V30.8824C129.531 30.8778 129.47 30.8778 129.409 30.8824C129.131 30.8956 128.866 30.997 128.652 31.1714C128.438 31.3457 128.287 31.5838 128.221 31.85C128.226 31.7574 128.226 31.6647 128.221 31.5721V30.9081H127.522L127.533 34.6089ZM123.927 32.3236C123.957 32.0598 124.086 31.8166 124.289 31.6423C124.491 31.4678 124.752 31.3749 125.021 31.3817C125.145 31.3784 125.269 31.4009 125.383 31.4477C125.498 31.4945 125.601 31.5646 125.687 31.6534C125.772 31.7422 125.838 31.8478 125.879 31.9632C125.921 32.0786 125.937 32.2014 125.928 32.3236H123.927ZM123.161 32.7559C123.153 33.0151 123.199 33.2732 123.296 33.514C123.394 33.7547 123.541 33.973 123.727 34.1552C123.914 34.3374 124.137 34.4794 124.382 34.5726C124.627 34.6657 124.889 34.7078 125.151 34.6964C125.681 34.701 126.195 34.5184 126.6 34.1817L126.303 33.667C125.995 33.9331 125.603 34.0859 125.193 34.0993C125.026 34.1078 124.859 34.0822 124.702 34.0243C124.545 33.9663 124.402 33.8772 124.281 33.7623C124.16 33.6475 124.064 33.5095 124 33.3567C123.936 33.204 123.903 33.0398 123.906 32.8743H126.621C126.621 32.8743 126.647 32.6633 126.647 32.5706C126.672 32.35 126.65 32.1267 126.581 31.9153C126.513 31.7039 126.399 31.5092 126.249 31.3439C126.099 31.1787 125.915 31.0466 125.71 30.9565C125.505 30.8663 125.282 30.82 125.058 30.8206C124.802 30.8143 124.549 30.8607 124.313 30.9568C124.076 31.053 123.863 31.1967 123.687 31.3789C123.51 31.561 123.374 31.7776 123.287 32.0147C123.2 32.2519 123.164 32.5043 123.182 32.7559H123.161ZM119.753 34.6089H120.472V32.8692H120.993L122.119 34.6089H122.973L121.587 32.55L122.833 30.9184H122.015L120.972 32.2772H120.451V29.4412H119.732L119.753 34.6089ZM117.122 34.6089H117.841V33.0956C117.836 32.8695 117.866 32.6439 117.929 32.4265C117.951 32.2867 118.001 32.1527 118.077 32.033C118.154 31.9132 118.255 31.8103 118.373 31.7306C118.491 31.6509 118.625 31.5961 118.765 31.5698C118.906 31.5434 119.051 31.546 119.19 31.5772V30.8824C119.128 30.8776 119.065 30.8776 119.003 30.8824C118.726 30.8951 118.461 30.9963 118.248 31.1709C118.034 31.3454 117.884 31.5838 117.82 31.85C117.825 31.7574 117.825 31.6647 117.82 31.5721V30.9081H117.122V34.6089ZM113.255 32.7508C113.267 32.5008 113.352 32.2596 113.501 32.0572C113.65 31.8547 113.856 31.7 114.093 31.6121C114.33 31.5243 114.588 31.5073 114.835 31.5631C115.082 31.619 115.307 31.7454 115.481 31.9265C115.656 32.1075 115.773 32.3354 115.818 32.5816C115.863 32.8279 115.834 33.0817 115.734 33.3116C115.634 33.5415 115.467 33.7372 115.255 33.8745C115.044 34.0119 114.796 34.0846 114.542 34.0839C114.368 34.0834 114.196 34.048 114.036 33.9801C113.876 33.9121 113.732 33.8129 113.611 33.6884C113.491 33.5638 113.398 33.4166 113.336 33.2554C113.275 33.0943 113.248 32.9227 113.255 32.7508ZM112.521 32.7508C112.507 33.1483 112.614 33.5408 112.828 33.8779C113.042 34.215 113.353 34.4814 113.721 34.6428C114.089 34.8043 114.497 34.8535 114.894 34.7842C115.29 34.7148 115.657 34.5301 115.946 34.2537C116.236 33.9772 116.435 33.6217 116.519 33.2325C116.603 32.8435 116.567 32.4386 116.416 32.0697C116.265 31.7009 116.006 31.385 115.672 31.1624C115.339 30.9399 114.945 30.8208 114.542 30.8206C114.28 30.8123 114.019 30.8561 113.775 30.9494C113.53 31.0426 113.307 31.1834 113.118 31.3634C112.93 31.5434 112.78 31.7589 112.677 31.9972C112.574 32.2356 112.521 32.4918 112.521 32.7508ZM110.551 34.6089H111.281V32.4265L113.031 29.4464H112.203L111.244 31.1449C111.083 31.4383 110.926 31.7986 110.926 31.7986C110.926 31.7986 110.77 31.4331 110.608 31.1449L109.639 29.4464H108.805L110.53 32.4265L110.551 34.6089ZM102.735 34.6089H103.532L104.303 32.2309C104.345 32.099 104.38 31.965 104.408 31.8295C104.408 31.8295 104.454 32.0405 104.512 32.2309L105.257 34.6089H106.049L107.258 30.9081H106.502L105.715 33.4817C105.678 33.6119 105.648 33.7442 105.627 33.878C105.627 33.878 105.585 33.6721 105.528 33.4817L104.72 30.9081H104.058L103.246 33.4817C103.204 33.6117 103.172 33.744 103.147 33.878C103.147 33.878 103.11 33.6721 103.053 33.4817L102.271 30.9081H101.51L102.735 34.6089ZM98.483 32.3236C98.5127 32.0598 98.6419 31.8166 98.8446 31.6423C99.0473 31.4678 99.3083 31.3749 99.5772 31.3817C99.7012 31.3784 99.8247 31.4009 99.9394 31.4477C100.054 31.4945 100.157 31.5646 100.243 31.6534C100.328 31.7422 100.394 31.8478 100.435 31.9632C100.477 32.0786 100.493 32.2014 100.484 32.3236H98.483ZM97.717 32.7559C97.7086 33.0147 97.755 33.2723 97.8519 33.5127C97.9494 33.7531 98.0953 33.9711 98.2818 34.1532C98.4678 34.3353 98.6903 34.4775 98.9347 34.571C99.1791 34.6644 99.4402 34.7071 99.7023 34.6964C100.233 34.7 100.748 34.5176 101.156 34.1817L100.859 33.667C100.551 33.9331 100.159 34.0859 99.7492 34.0993C99.5814 34.1077 99.4141 34.0822 99.2568 34.0243C99.0999 33.9664 98.9561 33.8773 98.8352 33.7626C98.7138 33.6479 98.6179 33.5099 98.5528 33.3571C98.4882 33.2043 98.4553 33.04 98.4569 32.8743H101.193C101.193 32.8743 101.193 32.6633 101.193 32.5706C101.215 32.3486 101.19 32.1243 101.119 31.9126C101.048 31.7009 100.931 31.5066 100.778 31.3425C100.625 31.1786 100.438 31.0486 100.23 30.9612C100.022 30.874 99.7976 30.8313 99.572 30.8361C99.3167 30.8297 99.0629 30.8761 98.8269 30.9723C98.5908 31.0684 98.3777 31.2121 98.2011 31.3943C98.0244 31.5765 97.8884 31.7931 97.8014 32.0302C97.7144 32.2673 97.6784 32.5198 97.6961 32.7714L97.717 32.7559ZM92.7928 34.6243H93.5223V31.2581C93.5223 30.9647 93.4754 30.5015 93.4754 30.5015C93.4754 30.5015 93.7204 30.9699 93.9131 31.2581L96.2476 34.6089H96.9666V29.4618H96.2319V32.8228C96.2319 33.1059 96.284 33.5692 96.284 33.5692C96.284 33.5692 96.0391 33.1008 95.8463 32.8228L93.5171 29.4618H92.8033L92.7928 34.6243ZM88.5513 34.6243H89.2704V33.0956C89.2657 32.8695 89.2954 32.6439 89.359 32.4265C89.3803 32.2867 89.4309 32.1527 89.507 32.033C89.5836 31.9132 89.6841 31.8103 89.8024 31.7306C89.9207 31.6509 90.0541 31.5961 90.1948 31.5698C90.3355 31.5434 90.4803 31.546 90.62 31.5772V30.8824C90.5574 30.8776 90.4949 30.8776 90.4324 30.8824C90.1557 30.8959 89.891 30.9974 89.6779 31.1719C89.4648 31.3463 89.3147 31.5842 89.2495 31.85C89.2548 31.7574 89.2548 31.6647 89.2495 31.5721V30.9081H88.5826L88.5513 34.6243ZM84.5338 32.7662C84.5453 32.5165 84.6302 32.2754 84.7787 32.0731C84.9278 31.8708 85.1331 31.716 85.3702 31.628C85.6067 31.54 85.8647 31.5227 86.1116 31.5782C86.3581 31.6337 86.5832 31.7595 86.7583 31.94C86.9334 32.1206 87.0506 32.348 87.096 32.5939C87.1413 32.8398 87.1126 33.0935 87.0136 33.3235C86.9141 33.5535 86.7489 33.7496 86.5379 33.8875C86.3269 34.0254 86.0793 34.099 85.8261 34.0993C85.6515 34.0987 85.4791 34.0635 85.3191 33.9955C85.1586 33.9277 85.0137 33.8285 84.8934 33.7041C84.7725 33.5796 84.6787 33.4325 84.6167 33.2713C84.5552 33.1101 84.5271 32.9384 84.5338 32.7662ZM83.8043 32.7662C83.7908 33.1638 83.8976 33.5562 84.1118 33.8934C84.3254 34.2305 84.6365 34.4968 85.0044 34.6583C85.3722 34.8197 85.7808 34.8689 86.1773 34.7996C86.5738 34.7303 86.9407 34.5456 87.2299 34.2691C87.5196 33.9927 87.7192 33.6371 87.8025 33.248C87.8864 32.8589 87.8505 32.454 87.6994 32.0852C87.5488 31.7163 87.2898 31.4004 86.9563 31.1778C86.6223 30.9553 86.2289 30.8363 85.8261 30.8361C85.564 30.8278 85.3029 30.8716 85.0586 30.9648C84.8137 31.058 84.5906 31.1988 84.402 31.3788C84.2134 31.5588 84.0633 31.7743 83.9607 32.0126C83.858 32.251 83.8049 32.5072 83.8043 32.7662ZM81.9337 34.6243H82.6476V31.5361H83.5334V30.9699H82.6476V30.8052C82.6361 30.7008 82.6486 30.5952 82.6835 30.4962C82.7189 30.3971 82.7757 30.3071 82.8508 30.2326C82.9258 30.1581 83.0165 30.1011 83.1165 30.0657C83.2166 30.0303 83.3234 30.0174 83.4292 30.028C83.4917 30.0221 83.5542 30.0221 83.6168 30.028V29.4258C83.525 29.4181 83.4323 29.4181 83.3406 29.4258C83.1525 29.4058 82.9618 29.4275 82.783 29.4893C82.6043 29.5511 82.4417 29.6514 82.3068 29.783C82.1723 29.9145 82.0686 30.0741 82.004 30.25C81.9399 30.4259 81.9155 30.6138 81.9337 30.8V30.9802H81.4699V31.5464H81.9337V34.6243ZM76.6761 32.3236C76.7094 32.0616 76.8407 31.8215 77.0445 31.6502C77.2477 31.4788 77.5082 31.3886 77.7755 31.3971C77.898 31.3941 78.0199 31.4161 78.1335 31.4621C78.2471 31.5079 78.3497 31.5766 78.4347 31.6637C78.5201 31.7508 78.5858 31.8544 78.6285 31.968C78.6712 32.0816 78.6895 32.2027 78.6822 32.3236H76.6761ZM75.9153 32.7559C75.907 33.0147 75.9533 33.2723 76.0503 33.5127C76.1477 33.7531 76.2936 33.9711 76.4801 34.1532C76.6662 34.3353 76.8887 34.4775 77.133 34.571C77.3774 34.6644 77.6385 34.7071 77.9006 34.6964C78.43 34.701 78.9438 34.5184 79.3492 34.1817L79.0574 33.667C78.7468 33.9328 78.3529 34.0854 77.9423 34.0993C77.775 34.1078 77.6077 34.0822 77.4509 34.0243C77.294 33.9663 77.1508 33.8772 77.0299 33.7623C76.9095 33.6475 76.8136 33.5095 76.7495 33.3567C76.6849 33.204 76.6526 33.0398 76.6552 32.8743H79.3909C79.3909 32.8743 79.3909 32.6633 79.3909 32.5706C79.4138 32.3482 79.3888 32.1234 79.3169 31.9113C79.245 31.6992 79.1282 31.5047 78.9745 31.3406C78.8208 31.1765 78.6332 31.0466 78.4248 30.9597C78.2164 30.8727 77.9913 30.8305 77.7651 30.8361C77.5103 30.8305 77.2571 30.8774 77.0215 30.9739C76.786 31.0703 76.5739 31.2142 76.3978 31.3962C76.2217 31.5783 76.0862 31.7947 75.9992 32.0314C75.9127 32.2682 75.8773 32.5202 75.8944 32.7714L75.9153 32.7559ZM71.9812 32.7714C71.9765 33.0307 72.026 33.2882 72.1261 33.5279C72.2266 33.7676 72.3756 33.9844 72.5643 34.1648C72.7529 34.3453 72.977 34.4856 73.2224 34.5771C73.4683 34.6685 73.7304 34.7091 73.9925 34.6964C74.2692 34.7027 74.5449 34.6535 74.8018 34.5518C75.0586 34.45 75.2921 34.2979 75.488 34.1045L75.2014 33.5897C74.8982 33.9029 74.4834 34.0874 74.0446 34.1045C73.8675 34.1081 73.6914 34.0759 73.5272 34.0099C73.3626 33.944 73.2141 33.8456 73.0895 33.7207C72.965 33.5959 72.8675 33.4474 72.8034 33.2841C72.7394 33.1209 72.7097 32.9464 72.7159 32.7714C72.7086 32.5986 72.7373 32.4263 72.8003 32.2649C72.8634 32.1035 72.9587 31.9566 73.0812 31.8332C73.2042 31.7097 73.3506 31.6124 73.5126 31.5471C73.6747 31.4818 73.8487 31.4501 74.0238 31.4537C74.413 31.458 74.7856 31.6091 75.0659 31.8758L75.4046 31.3611C75.2202 31.1804 75.0003 31.0392 74.758 30.9462C74.5162 30.8532 74.2572 30.8105 73.9977 30.8206C73.7351 30.8093 73.473 30.8513 73.2276 30.944C72.9822 31.0366 72.7586 31.1779 72.5705 31.3593C72.3824 31.5407 72.2344 31.7582 72.1344 31.9984C72.0349 32.2386 71.9864 32.4964 71.9916 32.7559L71.9812 32.7714ZM67.9377 34.6089H68.6567V32.8743C68.6495 32.7009 68.6687 32.5273 68.7141 32.3596C68.7828 32.1002 68.9371 31.8707 69.1518 31.7069C69.367 31.543 69.6306 31.454 69.9021 31.4537C70.5013 31.4537 70.6108 31.8655 70.6108 32.3853V34.5934H71.3299V32.2361C71.3299 31.2942 70.9234 30.8206 70.0428 30.8206C69.751 30.8172 69.4644 30.8944 69.2148 31.0436C68.9652 31.1928 68.7631 31.4079 68.6307 31.6647C68.6359 31.5756 68.6359 31.4862 68.6307 31.3971V30.8824H67.9481L67.9377 34.6089ZM64.6132 33.5331C64.6132 32.8692 65.5928 32.8331 66.1348 32.8331H66.3171V32.9412C66.3338 33.2266 66.2395 33.5075 66.0535 33.7266C65.8674 33.9456 65.6043 34.0863 65.3167 34.1199C65.2307 34.1299 65.1442 34.1224 65.0613 34.0978C64.9785 34.0733 64.9019 34.0322 64.8362 33.9772C64.7701 33.9222 64.7164 33.8544 64.6778 33.778C64.6398 33.7016 64.6174 33.6183 64.6132 33.5331ZM63.8889 33.5692C63.8926 33.7249 63.9285 33.8782 63.9937 34.02C64.0593 34.1618 64.1526 34.2891 64.2688 34.3944C64.385 34.4996 64.5215 34.5806 64.6705 34.6325C64.819 34.6844 64.9769 34.7061 65.1343 34.6964C65.387 34.7059 65.6371 34.6424 65.8539 34.5134C66.0701 34.3845 66.2442 34.1958 66.3536 33.9706C66.3479 34.0684 66.3479 34.1663 66.3536 34.264V34.614H67.0206V32.267C67.0414 32.0701 67.0175 31.8712 66.9497 31.6849C66.8825 31.4985 66.7731 31.3296 66.6303 31.1907C66.488 31.0517 66.3156 30.9463 66.1259 30.8822C65.9362 30.8182 65.7346 30.7971 65.5355 30.8206C65.0348 30.8147 64.545 30.968 64.139 31.2581L64.4361 31.7728C64.7393 31.5525 65.102 31.427 65.4782 31.4125C65.5897 31.3972 65.7038 31.4075 65.8106 31.443C65.918 31.4784 66.0149 31.5379 66.0946 31.6167C66.1744 31.6955 66.2348 31.7915 66.2708 31.8972C66.3067 32.0029 66.3171 32.1154 66.3015 32.2258V32.2927H66.14C65.5095 32.2927 63.8785 32.3442 63.8785 33.564L63.8889 33.5692ZM61.5493 34.5934H62.2684V33.0956C62.2663 32.8696 62.296 32.6444 62.357 32.4265C62.4127 32.19 62.544 31.9775 62.7322 31.8208C62.9197 31.6641 63.1537 31.5714 63.3991 31.5567C63.4684 31.55 63.5382 31.55 63.6076 31.5567V30.8824C63.545 30.8776 63.4825 30.8776 63.42 30.8824C63.1438 30.8967 62.8796 30.9986 62.6665 31.1728C62.4534 31.3471 62.3028 31.5846 62.2371 31.85C62.2423 31.7574 62.2423 31.6647 62.2371 31.5721V30.9081H61.5389L61.5493 34.5934ZM57.214 33.2603C57.214 34.2434 57.6517 34.6809 58.4958 34.6809C58.784 34.6835 59.0669 34.6051 59.3113 34.4547C59.5557 34.3043 59.7521 34.0882 59.8767 33.8317C59.8715 33.9225 59.8715 34.0136 59.8767 34.1045V34.5934H60.5749V30.9081H59.8558V32.6427C59.872 32.8141 59.8532 32.987 59.8006 33.151C59.7474 33.315 59.6615 33.4667 59.5474 33.5971C59.4332 33.7273 59.2941 33.8336 59.1373 33.9092C58.9809 33.9849 58.8106 34.0286 58.6365 34.0375C58.0373 34.0375 57.9331 33.6309 57.9331 33.1162V30.9081H57.214V33.2603ZM53.7905 34.1405C54.1793 34.4877 54.6894 34.6722 55.2131 34.6552C56.0364 34.6552 56.5731 34.1971 56.5731 33.5795C56.5731 32.3647 54.6451 32.514 54.6451 31.8449C54.6451 31.5258 54.9473 31.392 55.26 31.392C55.5997 31.3849 55.9301 31.5022 56.1875 31.7214L56.4741 31.2067C56.1401 30.9205 55.7065 30.7746 55.2652 30.8C54.52 30.8 53.9104 31.1758 53.9104 31.8295C53.9104 33.039 55.8384 32.9 55.8384 33.5795C55.8384 33.8831 55.5257 34.0427 55.2131 34.0427C54.8134 34.0357 54.4304 33.8815 54.1397 33.6103L53.7905 34.1405ZM49.7731 34.5934H50.4922V32.8743C50.4863 32.7006 50.5074 32.527 50.5547 32.3596C50.6235 32.1011 50.7767 31.8722 50.9905 31.7084C51.2044 31.5447 51.4669 31.4551 51.7375 31.4537C52.3367 31.4537 52.4514 31.8655 52.4514 32.3853V34.5934H53.1496V32.2361C53.1496 31.2942 52.7432 30.8206 51.8574 30.8206C51.5658 30.8145 51.2786 30.8906 51.0294 31.0402C50.7801 31.1897 50.5793 31.4064 50.4505 31.6647C50.4555 31.5756 50.4555 31.4862 50.4505 31.3971V30.8824H49.7522L49.7731 34.5934ZM48.0639 34.5934H48.7987V29.4464H48.0639V34.5934ZM42.2853 34.5934H43.0043V32.8743C42.9957 32.7008 43.015 32.5271 43.0617 32.3596C43.1301 32.1 43.2828 31.8699 43.4965 31.7043C43.7102 31.5388 43.973 31.4472 44.2445 31.4434C44.8489 31.4434 44.9584 31.8552 44.9584 32.375V34.5831H45.6774V32.2361C45.6774 31.2942 45.271 30.8206 44.3904 30.8206C44.1042 30.8147 43.8222 30.8889 43.5769 31.0346C43.3316 31.1803 43.1331 31.3916 43.0043 31.6442C43.0099 31.543 43.0099 31.4416 43.0043 31.3405V29.4412H42.2853V34.5934ZM39.9352 33.2397C39.9176 33.4291 39.943 33.6199 40.0096 33.7983C40.0762 33.9766 40.1823 34.1381 40.3201 34.2708C40.4579 34.4034 40.624 34.504 40.8062 34.5652C40.9885 34.6264 41.1822 34.6466 41.3734 34.6243C41.4566 34.6298 41.5402 34.6298 41.6235 34.6243V33.9964C41.5663 34.0021 41.5087 34.0021 41.4515 33.9964C41.3407 34.0065 41.2289 33.9918 41.1245 33.9536C41.02 33.9154 40.9256 33.8546 40.8481 33.7756C40.7707 33.6966 40.7121 33.6014 40.6768 33.4971C40.6414 33.3928 40.6302 33.282 40.6439 33.1728V31.5258H41.5453V30.9596H40.6439V29.889H39.9561V30.9596H39.435V31.5258H39.9248L39.9352 33.2397ZM37.9187 33.5846C37.9187 34.5162 38.5179 34.614 38.9243 34.614C39.0042 34.619 39.0842 34.619 39.164 34.614V33.9964H39.039C38.8149 33.9964 38.6377 33.9192 38.6377 33.4817V29.4412H37.9187V33.5846ZM34.6203 33.5177C34.6203 32.8537 35.5999 32.8177 36.1418 32.8177H36.3242V32.9412C36.3408 33.2266 36.2465 33.5075 36.0606 33.7266C35.8747 33.9456 35.6111 34.0863 35.3237 34.1199C35.2376 34.1299 35.1503 34.1222 35.0673 34.0974C34.9843 34.0725 34.9073 34.031 34.8413 33.9755C34.7753 33.9199 34.7216 33.8515 34.6836 33.7745C34.6455 33.6975 34.624 33.6136 34.6203 33.528V33.5177ZM33.896 33.564C33.8997 33.7221 33.9361 33.8777 34.003 34.0213C34.0699 34.165 34.1658 34.2936 34.285 34.3991C34.4041 34.5047 34.5438 34.5851 34.6956 34.6354C34.8474 34.6856 35.0079 34.7046 35.1674 34.6912C35.4168 34.6976 35.6628 34.6331 35.8762 34.5053C36.0896 34.3776 36.2614 34.192 36.3711 33.9706C36.3655 34.0684 36.3655 34.1663 36.3711 34.264V34.614H37.0381V32.267C37.0591 32.0701 37.0349 31.8712 36.9673 31.6849C36.8998 31.4985 36.7906 31.3296 36.648 31.1907C36.5053 31.0517 36.3328 30.9463 36.1432 30.8822C35.9536 30.8182 35.7519 30.7971 35.553 30.8206C35.0505 30.8154 34.5595 30.9687 34.1513 31.2581L34.4483 31.7728C34.7522 31.5539 35.1147 31.4285 35.4905 31.4125C35.6022 31.3972 35.7161 31.4075 35.8231 31.443C35.9301 31.4784 36.0273 31.5379 36.1071 31.6167C36.1869 31.6955 36.2471 31.7915 36.2829 31.8972C36.3188 32.0029 36.3293 32.1154 36.3138 32.2258V32.2927H36.147C35.5217 32.2927 33.8908 32.3442 33.8908 33.564H33.896ZM30.7435 32.3236C30.7769 32.0635 30.9067 31.8248 31.1079 31.6537C31.309 31.4826 31.5672 31.3912 31.8325 31.3971C31.9565 31.3939 32.0798 31.4164 32.1945 31.4632C32.3091 31.51 32.4125 31.5801 32.4979 31.6689C32.5834 31.7577 32.6491 31.8632 32.6906 31.9786C32.7322 32.0941 32.7487 32.2169 32.7392 32.339L30.7435 32.3236ZM29.9775 32.7559C29.9694 33.0147 30.0154 33.2723 30.1126 33.5127C30.2098 33.7531 30.356 33.9711 30.5423 34.1532C30.7286 34.3353 30.9509 34.4775 31.1953 34.571C31.4397 34.6644 31.701 34.7071 31.9628 34.6964C32.4941 34.7018 33.0097 34.5192 33.4166 34.1817L33.1196 33.667C32.8111 33.9331 32.4191 34.0859 32.0097 34.0993C31.8427 34.105 31.6764 34.0769 31.5209 34.0166C31.3653 33.9565 31.2239 33.8655 31.1053 33.7493C30.9867 33.6331 30.8934 33.4942 30.8312 33.341C30.769 33.1879 30.7391 33.0238 30.7435 32.8589H33.4739C33.4739 32.8589 33.4739 32.6478 33.4739 32.5552C33.4969 32.3327 33.4717 32.108 33.3999 31.8959C33.3282 31.6838 33.2115 31.4892 33.0577 31.3251C32.9039 31.1611 32.7165 31.0312 32.5079 30.9442C32.2994 30.8572 32.0745 30.8151 31.8482 30.8206C31.5929 30.8143 31.3391 30.8607 31.1031 30.9568C30.867 31.053 30.6539 31.1967 30.4773 31.3789C30.3007 31.561 30.1646 31.7776 30.0777 32.0147C29.9907 32.2519 29.9548 32.5043 29.9723 32.7559H29.9775ZM25.0742 34.6089H25.8089V32.339H28.5237V34.6089H29.2532V29.4618H28.5237V31.7317H25.8089V29.4412H25.0742V34.6089Z" fill="#323438"/>
</g>
<defs>
<clipPath id="clip0_264_33">
<rect width="136" height="35" fill="white"/>
</clipPath>
</defs>
</svg>
