<svg width="140" height="16" viewBox="0 0 140 16" fill="none" xmlns="http://www.w3.org/2000/svg">
<g clip-path="url(#clip0_264_50)">
<path d="M91.0692 14.0946C91.0692 14.0946 89.6328 15.9558 86.2027 15.9558C81.6211 15.9558 78.6616 12.4038 78.6616 8.01891C78.6616 3.63405 81.6211 0.0567627 86.2027 0.0567627C89.6328 0.0567627 91.2302 1.95582 91.2302 1.95582L89.8123 3.90534C89.8123 3.90534 88.5183 2.43531 86.2523 2.43531C83.2928 2.43531 81.2249 4.87064 81.2249 8.0126C81.2249 11.1546 83.2928 13.5394 86.2523 13.5394C88.5183 13.5394 89.8123 12.0946 89.8123 12.0946L91.0692 14.0946Z" fill="#045594"/>
<path d="M135.214 2.64355C135.214 2.64355 135.524 2.90222 135.963 2.90222C136.322 2.90222 136.477 2.7508 136.477 2.52998C136.477 2.32178 136.353 2.22083 135.877 2.06941C135.282 1.88645 134.997 1.68456 134.997 1.26184C134.997 0.794966 135.344 0.492126 135.969 0.492126C136.632 0.492126 136.892 0.769729 136.892 0.769729L136.651 1.13566C136.651 1.13566 136.397 0.90853 135.963 0.90853C135.66 0.90853 135.474 1.0284 135.474 1.24922C135.474 1.43219 135.617 1.52683 136.062 1.65932C136.706 1.84228 136.96 2.08203 136.96 2.50474C136.96 2.96531 136.638 3.32493 135.976 3.32493C135.313 3.32493 134.973 2.98424 134.973 2.98424L135.214 2.64355Z" fill="#045594"/>
<path d="M139.567 1.37537L138.799 2.39114H138.638L137.876 1.38798V3.2618H137.443V0.555176H137.777L138.718 1.81701L139.666 0.555176H139.994L140 3.2618H139.567V1.37537Z" fill="#045594"/>
<path d="M94.8092 15.0347H94.7968L94.5801 15.6025H94.5925L94.8092 15.0347Z" fill="#045594"/>
<path d="M104.121 15.6026H104.133L103.768 14.7067L104.121 15.6026Z" fill="#045594"/>
<path d="M12.1973 0.391174L12.1911 0.403793V0.391174L7.38656 7.28707L2.58203 0.391174H0.260254V15.6025H2.58203V5.07887L5.86966 9.50158L6.69312 10.6246H8.08L12.1973 5.08518V15.6088H14.5191V0.391174H12.1973Z" fill="#045594"/>
<path d="M117.005 10.2082C117.049 10.1893 117.079 10.1767 117.079 10.1767C118.993 9.43849 120.237 7.84228 120.237 5.48897C120.237 2.32177 118.021 0.391174 114.516 0.391174H108.368V15.6025H110.832V10.5804H114.411H114.38L117.952 15.6025H120.664L117.005 10.2082ZM110.832 8.35332V2.62461H114.392C116.38 2.62461 117.674 3.56468 117.674 5.5142C117.674 7.46373 116.355 8.35332 114.541 8.35332H110.832Z" fill="#045594"/>
<path d="M95.1681 15.0347H95.1557L94.939 15.6025H94.9452L95.1681 15.0347Z" fill="#045594"/>
<path d="M104.474 15.6026H104.486L104.127 14.7067L104.474 15.6026Z" fill="#045594"/>
<path d="M100.115 4.8707L99.5083 3.30603L100.115 4.8707Z" fill="#045594"/>
<path d="M101.223 2.05679L100.53 0.391174H98.2639L92.1406 15.6025H94.7472L96.6789 10.6057H102.344L103.935 14.7066L104.294 15.6025H106.87L101.223 2.05679ZM97.4714 8.56152L99.5084 3.306L100.115 4.87067L101.552 8.56152H97.4714Z" fill="#045594"/>
<path d="M71.6715 4.8707L71.0586 3.30603L71.6715 4.8707Z" fill="#045594"/>
<path d="M72.7737 2.05679L72.0803 0.391174H69.8142L63.6909 15.6025H66.2975L68.2292 10.6057H73.8943L75.4855 14.7066L75.8446 15.6025H78.4203L72.7737 2.05679ZM69.0279 8.56152L71.0649 3.306L71.6716 4.87067L73.108 8.56152H69.0279Z" fill="#045594"/>
<path d="M24.6292 4.8707L24.0225 3.30603L24.6292 4.8707Z" fill="#045594"/>
<path d="M25.7376 2.05679L25.0441 0.391174H22.7781L16.6548 15.6025H19.2614L21.1931 10.6057H26.8582L28.4494 14.7066L28.8085 15.6025H31.3841L25.7376 2.05679ZM21.9856 8.56152L24.0226 3.306L24.6293 4.87067L26.0657 8.56152H21.9856Z" fill="#045594"/>
<path d="M133.041 2.43534V0.391174H125.735H123.277V15.6025H125.431H125.735H133.041V13.5584H125.735V9.0284H131.437L131.419 6.98423H125.735V2.43534H133.041Z" fill="#045594"/>
<path d="M46.1071 7.00946H39.0613L40.021 9.13564H43.4882V9.21766C43.4882 11.7792 41.8722 13.552 39.2594 13.552C36.2752 13.552 34.3559 11.142 34.3559 8.02523C34.3559 4.90851 36.3185 2.44795 39.3337 2.44795C41.8227 2.44795 43.2158 3.94321 43.2158 3.94321L44.6584 2.01892C44.6584 2.01892 43.0424 0.069397 39.3337 0.069397C34.7335 0.069397 31.8174 3.59621 31.8174 8.03154C31.8174 12.4669 34.6283 15.9684 39.2594 15.9684C43.3334 15.9684 45.8471 13.2934 46.0762 9.14195H46.0886C46.1133 8.92113 46.1071 7.00946 46.1071 7.00946Z" fill="#045594"/>
<path d="M59.0534 0.391174V11.142V11.1357L51.1098 0.391174H48.6519V15.6025H51.1098V8.21452V4.82651L59.0534 15.6025H61.5176V0.391174H59.0534Z" fill="#045594"/>
</g>
<defs>
<clipPath id="clip0_264_50">
<rect width="140" height="16" fill="white"/>
</clipPath>
</defs>
</svg>
