<svg width="16" height="16" viewBox="0 0 16 16" fill="none" xmlns="http://www.w3.org/2000/svg">
<path d="M13.3334 6.66666C13.3334 9.99533 9.64069 13.462 8.40069 14.5327C8.28517 14.6195 8.14455 14.6665 8.00002 14.6665C7.85549 14.6665 7.71487 14.6195 7.59935 14.5327C6.35935 13.462 2.66669 9.99533 2.66669 6.66666C2.66669 5.25217 3.22859 3.89562 4.22878 2.89543C5.22898 1.89523 6.58553 1.33333 8.00002 1.33333C9.41451 1.33333 10.7711 1.89523 11.7713 2.89543C12.7715 3.89562 13.3334 5.25217 13.3334 6.66666Z" stroke="#FCFAF8" stroke-width="1.33333" stroke-linecap="round" stroke-linejoin="round"/>
<path d="M8 8.66667C9.10457 8.66667 10 7.77124 10 6.66667C10 5.5621 9.10457 4.66667 8 4.66667C6.89543 4.66667 6 5.5621 6 6.66667C6 7.77124 6.89543 8.66667 8 8.66667Z" stroke="#FCFAF8" stroke-width="1.33333" stroke-linecap="round" stroke-linejoin="round"/>
</svg>
