<svg width="200" height="30" viewBox="0 0 200 30" fill="none" xmlns="http://www.w3.org/2000/svg">
<g clip-path="url(#clip0_264_150)">
<mask id="mask0_264_150" style="mask-type:luminance" maskUnits="userSpaceOnUse" x="0" y="10" width="20" height="20">
<path d="M0.0185547 10.6307H19.829V29.9812H0.0185547V10.6307Z" fill="white"/>
</mask>
<g mask="url(#mask0_264_150)">
<path fill-rule="evenodd" clip-rule="evenodd" d="M2.90723 13.7405C2.26208 12.1424 1.84159 11.5438 0.635683 11.4014L0.131098 11.3442C-0.0650272 11.1731 -0.0367901 10.7741 0.186958 10.6307C1.00031 10.6882 1.89745 10.7166 3.10336 10.7166C4.33689 10.7166 5.31782 10.6882 6.49611 10.6307C6.69223 10.7453 6.74809 11.1731 6.55197 11.3442L6.13148 11.4014C5.06584 11.5438 4.84148 11.7149 4.81385 11.9431C4.86971 12.2286 5.34606 13.7689 6.21558 15.9366C7.50528 19.2456 8.79528 22.5261 10.1967 25.7783C11.0662 23.8957 12.2718 20.957 12.8887 19.4454C13.73 17.5057 15.0194 14.2819 15.4961 13.0557C15.7207 12.4571 15.7487 12.1424 15.7487 11.9431C15.7487 11.7433 15.4681 11.5154 14.4869 11.4014L13.982 11.3442C13.7859 11.1731 13.8421 10.7453 14.0382 10.6307C14.8233 10.6882 15.8886 10.7166 16.9543 10.7166C17.8796 10.7166 18.7492 10.6882 19.6739 10.6307C19.8701 10.7453 19.8701 11.2019 19.7301 11.3442L18.8888 11.4014C18.216 11.4585 17.7952 11.8004 17.4312 12.3997C16.6461 13.7405 15.5525 16.0509 14.2908 18.9608L12.7767 22.4693C11.6549 25.0938 10.337 28.4025 9.86062 29.9144C9.77622 29.9713 9.66419 30 9.55185 30C9.4122 30 9.27163 29.9713 9.13137 29.9144C8.82352 28.7163 8.34625 27.3186 7.84136 26.1205L2.90723 13.7405Z" fill="#545554"/>
</g>
<path fill-rule="evenodd" clip-rule="evenodd" d="M19.5373 18.1003C19.5373 15.7647 19.4939 15.3905 18.2155 15.2803L17.674 15.236C17.5439 15.1476 17.588 14.7513 17.7178 14.6853C18.8008 14.7292 19.5373 14.7513 20.4468 14.7513C21.3134 14.7513 22.0503 14.7292 23.1336 14.6853C23.2637 14.7513 23.3069 15.1476 23.1768 15.236L22.6352 15.2803C21.3569 15.3905 21.3134 15.7647 21.3134 18.1003V25.9438C21.3134 28.2791 21.3569 28.5873 22.6352 28.7417L23.1768 28.808C23.3069 28.8961 23.2637 29.2925 23.1336 29.3591C22.0503 29.3149 21.3134 29.2925 20.4468 29.2925C19.5373 29.2925 18.8008 29.3149 17.7178 29.3591C17.588 29.2925 17.5439 28.9404 17.674 28.808L18.2155 28.7417C19.4939 28.5873 19.5373 28.2791 19.5373 25.9438V18.1003Z" fill="#545554"/>
<path fill-rule="evenodd" clip-rule="evenodd" d="M26.8608 18.056C26.8608 15.7426 26.8173 15.3905 25.4524 15.2803L24.9112 15.236C24.7811 15.1476 24.8242 14.7513 24.9543 14.6853C26.1678 14.7292 26.904 14.7513 27.7703 14.7513C28.6155 14.7513 29.3523 14.7292 30.435 14.6853C30.5651 14.7513 30.6086 15.1476 30.4785 15.236L29.9587 15.2803C28.6807 15.3905 28.6369 15.7426 28.6369 18.056V25.7234C28.6369 27.1116 28.7021 27.6845 29.0921 28.1029C29.3303 28.3454 29.742 28.6097 31.4535 28.6097C33.2945 28.6097 33.75 28.5216 34.0965 28.3233C34.5293 28.0587 35.0926 27.2657 35.5258 26.1421C35.6559 26.0316 36.0676 26.1204 36.0676 26.2745C36.0676 26.5167 35.4612 28.7638 35.1575 29.3591C34.0533 29.3149 31.9953 29.2925 29.7637 29.2925H27.7703C26.8608 29.2925 26.1678 29.3149 24.9543 29.3591C24.8242 29.2925 24.7811 28.9404 24.9112 28.808L25.5604 28.7417C26.8173 28.6097 26.8608 28.3012 26.8608 25.988V18.056Z" fill="#545554"/>
<path fill-rule="evenodd" clip-rule="evenodd" d="M38.4088 18.056C38.4088 15.7426 38.3651 15.3905 37.0001 15.2803L36.4589 15.236C36.3291 15.1476 36.3719 14.7513 36.502 14.6853C37.7155 14.7292 38.4517 14.7513 39.318 14.7513C40.1632 14.7513 40.8997 14.7292 41.9827 14.6853C42.1132 14.7513 42.1563 15.1476 42.0262 15.236L41.5061 15.2803C40.2281 15.3905 40.1849 15.7426 40.1849 18.056V25.7234C40.1849 27.1116 40.2498 27.6845 40.6401 28.1029C40.878 28.3454 41.2897 28.6097 43.0015 28.6097C44.8425 28.6097 45.2977 28.5216 45.6442 28.3233C46.0774 28.0587 46.6406 27.2657 47.0738 26.1421C47.2039 26.0316 47.6153 26.1204 47.6153 26.2745C47.6153 26.5167 47.0092 28.7638 46.7055 29.3591C45.6011 29.3149 43.543 29.2925 41.3117 29.2925H39.318C38.4088 29.2925 37.7155 29.3149 36.502 29.3591C36.3719 29.2925 36.3291 28.9404 36.4589 28.808L37.1084 28.7417C38.3651 28.6097 38.4088 28.3012 38.4088 25.988V18.056Z" fill="#545554"/>
<path fill-rule="evenodd" clip-rule="evenodd" d="M52.4043 22.22C52.2307 22.7271 52.2525 22.7489 52.8589 22.7489H55.5236C56.1521 22.7489 56.1952 22.6608 56.0002 22.0662L54.8303 18.4747C54.657 17.9461 54.462 17.3508 54.3319 17.0868H54.2884C54.2238 17.1967 54.0068 17.7256 53.7686 18.3866L52.4043 22.22ZM56.6933 24.1807C56.5418 23.696 56.4551 23.6303 55.8049 23.6303H52.5338C51.9926 23.6303 51.8628 23.696 51.7109 24.1592L50.9524 26.4724C50.6276 27.4636 50.4761 28.0586 50.4761 28.3011C50.4761 28.5654 50.5841 28.6978 51.1039 28.7416L51.8193 28.808C51.9705 28.9179 51.9705 29.2706 51.7755 29.359C51.2126 29.3148 50.541 29.3148 49.5228 29.2924C48.808 29.2924 48.028 29.3366 47.443 29.359C47.3133 29.2706 47.2698 28.9179 47.3996 28.808L48.1147 28.7416C48.6348 28.6978 49.1114 28.4552 49.4141 27.6623C49.8044 26.6486 50.4105 25.2162 51.3209 22.7489L53.5305 16.8004C53.8339 16.0071 53.964 15.5884 53.8987 15.236C54.4185 15.0819 54.7871 14.6852 55.0253 14.3988C55.1554 14.3988 55.3066 14.443 55.35 14.5968C55.632 15.5666 55.9785 16.58 56.3036 17.5491L59.2714 26.4064C59.8996 28.3011 60.1815 28.6314 61.1127 28.7416L61.6977 28.808C61.8495 28.9179 61.8061 29.2706 61.6977 29.359C60.8093 29.3148 60.0514 29.2924 59.0767 29.2924C58.0362 29.2924 57.2131 29.3366 56.5852 29.359C56.4117 29.2706 56.3899 28.9179 56.5418 28.808L57.1699 28.7416C57.6248 28.6978 57.9282 28.5654 57.9282 28.3453C57.9282 28.1028 57.8201 27.7062 57.6465 27.1772L56.6933 24.1807Z" fill="#545554"/>
<path fill-rule="evenodd" clip-rule="evenodd" d="M74.2856 27.0449C74.2856 27.9266 74.4154 28.4552 74.8054 28.6096C74.87 28.676 74.87 28.808 74.7843 28.8736C74.5241 28.8736 74.1341 28.9621 73.7224 29.0726C72.5745 29.3808 71.0145 29.6454 69.8445 29.6454C67.267 29.6454 64.9053 28.9179 63.2373 27.1996C61.9372 25.8778 61.2441 24.1371 61.2441 22.1982C61.2441 20.3259 61.8506 18.4305 63.1935 16.9766C64.6457 15.4343 66.7898 14.3988 70.0615 14.3988C71.2964 14.3988 72.4443 14.6407 72.8129 14.7291C73.224 14.8175 73.8953 14.9716 74.1555 14.9278C74.1555 15.6544 74.2856 16.8004 74.481 18.1223C74.4154 18.2982 74.0254 18.3206 73.8953 18.1883C73.2892 15.8088 71.6641 15.0594 69.4548 15.0594C65.2518 15.0594 63.4108 18.1002 63.4108 21.4046C63.4108 25.6349 65.5549 28.9621 69.91 28.9621C71.2523 28.9621 72.054 28.676 72.2925 28.3011C72.4012 28.1467 72.5092 27.7504 72.5092 27.0449V26.1639C72.5092 24.3133 72.4444 24.1807 71.1008 24.0272L70.1482 23.9167C69.9746 23.8286 69.996 23.4323 70.1482 23.366C70.776 23.4099 71.9677 23.4323 73.2461 23.4323C74.091 23.4323 74.8275 23.4099 75.5419 23.366C75.6935 23.4541 75.7158 23.7844 75.5637 23.9167L75.2172 23.9609C74.3071 24.0708 74.2856 24.6875 74.2856 25.8114V27.0449Z" fill="#545554"/>
<mask id="mask1_264_150" style="mask-type:luminance" maskUnits="userSpaceOnUse" x="76" y="0" width="75" height="30">
<path d="M76.5332 0.0849609H150.919V29.9811H76.5332V0.0849609Z" fill="white"/>
</mask>
<g mask="url(#mask1_264_150)">
<path fill-rule="evenodd" clip-rule="evenodd" d="M78.669 18.3019C78.669 16.0105 78.6262 15.6802 77.3484 15.5261L77.0014 15.4819C76.8716 15.3935 76.9154 14.9972 77.0455 14.9312C77.9758 14.975 78.7131 14.9972 79.6006 14.9972H83.6718C85.0579 14.9972 86.3366 14.9972 86.5958 14.9312C86.7258 15.3054 86.8559 16.8919 86.9431 17.8617C86.8559 17.9937 86.5101 18.0379 86.4014 17.9056C86.0767 16.8698 85.8815 16.0989 84.7552 15.8125C84.3008 15.702 83.6076 15.6802 82.6546 15.6802H81.0953C80.4453 15.6802 80.4453 15.7238 80.4453 16.5613V20.9681C80.4453 21.5848 80.5108 21.5848 81.1602 21.5848H82.4162C83.3257 21.5848 83.9975 21.5406 84.2573 21.4528C84.5168 21.3644 84.6689 21.2321 84.7767 20.6817L84.9508 19.7782C85.0579 19.6459 85.427 19.6459 85.5136 19.8C85.5136 20.3289 85.427 21.1882 85.427 22.0254C85.427 22.8186 85.5136 23.6558 85.5136 24.1405C85.427 24.2946 85.0579 24.2946 84.9508 24.1626L84.7552 23.3034C84.6689 22.9067 84.5168 22.5764 84.0838 22.4659C83.7805 22.3781 83.2605 22.3557 82.4162 22.3557H81.1602C80.5108 22.3557 80.4453 22.3781 80.4453 22.9506V26.0574C80.4453 27.2252 80.5108 27.9742 80.8569 28.3487C81.117 28.6134 81.5715 28.8556 83.4775 28.8556C85.1451 28.8556 85.7737 28.7675 86.2499 28.5249C86.6398 28.3045 87.2244 27.5337 87.7875 26.388C87.9393 26.2775 88.242 26.3438 88.3292 26.5421C88.1774 27.3133 87.636 29.0097 87.3544 29.6049C85.405 29.5607 83.4775 29.5383 81.5501 29.5383H79.6006C78.669 29.5383 77.9333 29.5607 76.6553 29.6049C76.5255 29.5383 76.4814 29.1862 76.6115 29.0539L77.327 28.9876C78.561 28.8774 78.669 28.547 78.669 26.2339V18.3019Z" fill="#545554"/>
</g>
<mask id="mask2_264_150" style="mask-type:luminance" maskUnits="userSpaceOnUse" x="76" y="0" width="75" height="30">
<path d="M76.5332 0.0849609H150.919V29.9811H76.5332V0.0849609Z" fill="white"/>
</mask>
<g mask="url(#mask2_264_150)">
<path fill-rule="evenodd" clip-rule="evenodd" d="M92.935 12.4892C95.0049 10.8442 97.6426 10.0367 100.592 10.0367C102.124 10.0367 104.278 10.3541 105.611 10.7293C105.952 10.8158 106.151 10.8733 106.406 10.8442C106.434 11.508 106.576 13.3257 106.803 15.0856C106.661 15.2877 106.236 15.3161 106.037 15.1431C105.611 13.1811 104.335 10.9311 100.224 10.9311C95.8844 10.9311 92.1981 13.7296 92.1981 19.7012C92.1981 25.7596 95.9697 29.1054 100.62 29.1054C104.278 29.1054 105.895 26.6826 106.547 24.9802C106.746 24.8365 107.172 24.8943 107.285 25.0961C107.086 26.5964 106.349 28.4997 105.923 29.0479C105.583 29.1054 105.243 29.2213 104.931 29.3365C104.307 29.5674 102.265 30 100.45 30C97.8981 30 95.4588 29.4808 93.3889 28.0671C91.1206 26.4802 89.3623 23.8554 89.3623 20.1338C89.3623 16.9314 90.7797 14.191 92.935 12.4892Z" fill="#D64B2B"/>
</g>
<mask id="mask3_264_150" style="mask-type:luminance" maskUnits="userSpaceOnUse" x="76" y="0" width="75" height="30">
<path d="M76.5332 0.0849609H150.919V29.9811H76.5332V0.0849609Z" fill="white"/>
</mask>
<g mask="url(#mask3_264_150)">
<path fill-rule="evenodd" clip-rule="evenodd" d="M111.389 22.4659C111.217 22.9731 111.238 22.9949 111.845 22.9949H114.509C115.137 22.9949 115.18 22.9068 114.985 22.3121L113.816 18.7207C113.643 18.192 113.447 17.5968 113.317 17.3328H113.274C113.21 17.4427 112.993 17.9716 112.754 18.6326L111.389 22.4659ZM115.678 24.4267C115.526 23.9419 115.44 23.8762 114.79 23.8762H111.519C110.978 23.8762 110.849 23.9419 110.696 24.4052L109.939 26.7184C109.614 27.7096 109.463 28.3046 109.463 28.5471C109.463 28.8114 109.571 28.9437 110.091 28.9876L110.805 29.0539C110.957 29.1638 110.957 29.5166 110.762 29.605C110.199 29.5608 109.527 29.5608 108.51 29.5384C107.794 29.5384 107.015 29.5826 106.431 29.605C106.3 29.5166 106.256 29.1638 106.386 29.0539L107.101 28.9876C107.621 28.9437 108.098 28.7012 108.401 27.9082C108.791 26.8946 109.397 25.4621 110.307 22.9949L112.517 17.0464C112.82 16.2531 112.95 15.8344 112.884 15.4819C113.404 15.3278 113.773 14.9312 114.011 14.6448C114.141 14.6448 114.292 14.689 114.336 14.8428C114.617 15.8126 114.963 16.8259 115.289 17.7951L118.255 26.6524C118.883 28.5471 119.165 28.8774 120.096 28.9876L120.681 29.0539C120.833 29.1638 120.789 29.5166 120.681 29.605C119.793 29.5608 119.036 29.5384 118.061 29.5384C117.021 29.5384 116.198 29.5826 115.57 29.605C115.397 29.5166 115.375 29.1638 115.526 29.0539L116.155 28.9876C116.61 28.9437 116.912 28.8114 116.912 28.5913C116.912 28.3488 116.804 27.9521 116.631 27.4232L115.678 24.4267Z" fill="#D64B2B"/>
</g>
<mask id="mask4_264_150" style="mask-type:luminance" maskUnits="userSpaceOnUse" x="76" y="0" width="75" height="30">
<path d="M76.5332 0.0849609H150.919V29.9811H76.5332V0.0849609Z" fill="white"/>
</mask>
<g mask="url(#mask4_264_150)">
<path fill-rule="evenodd" clip-rule="evenodd" d="M117.049 2.07633C107.335 1.99328 96.0427 3.8978 83.1792 8.63307C90.5844 4.46401 102.252 0.0843294 117.049 0.084961C131.846 0.084961 143.514 4.46401 150.919 8.63307C138.056 3.8978 126.763 2.15843 117.049 2.07633Z" fill="#D64B2B"/>
</g>
<path fill-rule="evenodd" clip-rule="evenodd" d="M133.699 29.3086C133.712 29.3234 133.745 29.3218 133.857 29.3253C135.053 29.3752 136.148 29.3329 137.08 29.3329H139.03C140.959 29.3329 142.887 29.355 144.836 29.3989C145.118 28.8039 145.659 27.1075 145.811 26.337C145.724 26.138 145.421 26.0723 145.269 26.1825C144.706 27.3282 144.121 28.0991 143.731 28.3195C143.254 28.5617 142.232 28.6498 140.564 28.6498C138.657 28.6498 138.609 28.4603 138.358 28.2112C138.011 27.8367 137.925 27.0194 137.925 25.8516V22.7452C137.925 22.1723 137.991 22.1502 138.64 22.1502H139.896C140.741 22.1502 141.261 22.1723 141.564 22.2608C141.997 22.3713 142.15 22.701 142.236 23.0979L142.432 23.9572C142.539 24.0895 142.908 24.0895 142.994 23.9354C142.994 23.45 142.908 22.6129 142.908 21.8202C142.908 20.9828 142.994 20.1238 142.994 19.5946C142.908 19.4404 142.539 19.4404 142.432 19.5731L142.258 20.4759C142.15 21.027 141.997 21.159 141.738 21.2474C141.478 21.3349 140.806 21.3794 139.896 21.3794H138.64C137.991 21.3794 137.925 21.3794 137.925 20.7623V16.3558C137.925 15.5187 137.925 15.4748 138.575 15.4748H140.135C141.088 15.4748 141.781 15.4969 142.236 15.6071C143.363 15.8932 143.558 16.6643 143.883 17.6998C143.991 17.8318 144.337 17.7879 144.425 17.6556C144.337 16.6864 144.207 15.0999 144.077 14.7257C143.818 14.7917 142.539 14.7917 141.153 14.7917H137.08C136.193 14.7917 135.456 14.7699 134.525 14.7257C134.394 14.7917 134.35 15.1883 134.48 15.2758L134.828 15.321C136.106 15.4748 136.148 15.8051 136.148 18.0961V26.0281C136.148 28.1499 135.955 28.736 135.13 28.7995C134.237 28.8712 133.893 28.5683 133.591 28.3283" fill="#D64B2B"/>
<path fill-rule="evenodd" clip-rule="evenodd" d="M124.984 21.1229C124.984 21.5158 124.984 21.7551 125.048 21.8423C125.113 21.908 125.438 21.9512 126.543 21.9512C127.322 21.9512 128.145 21.8644 128.773 21.3847C129.358 20.9271 129.856 20.1642 129.856 18.6816C129.856 16.9596 128.795 15.3247 126.391 15.3247C125.048 15.3247 124.984 15.4116 124.984 16.022V21.1229ZM123.208 18.0061C123.208 15.9351 123.143 15.5644 122.255 15.4558L121.562 15.3683C121.411 15.259 121.411 14.9107 121.584 14.8232C122.796 14.714 124.291 14.6489 126.412 14.6489C127.755 14.6489 129.033 14.7582 130.029 15.3029C131.068 15.848 131.826 16.8288 131.826 18.3544C131.826 20.4253 130.202 21.559 129.119 21.9951C129.011 22.1259 129.119 22.3438 129.228 22.5181C130.96 25.3302 132.107 27.0737 133.58 28.3166C133.948 28.6435 134.489 28.8835 135.074 28.927C135.183 28.9706 135.204 29.1452 135.096 29.2318C134.901 29.2978 134.555 29.341 134.143 29.341C132.302 29.341 131.198 28.796 129.661 26.5949C129.097 25.7878 128.21 24.2837 127.539 23.3028C127.214 22.8231 126.867 22.6052 126.001 22.6052C125.026 22.6052 124.984 22.6273 124.984 23.0849V26.0448C124.984 28.3337 125.026 28.5948 126.282 28.7695L126.738 28.8351C126.867 28.9441 126.824 29.3148 126.694 29.3802C125.719 29.3363 124.984 29.3148 124.117 29.3148C123.208 29.3148 122.428 29.3363 121.411 29.3802C121.281 29.3148 121.238 28.9877 121.367 28.8351L121.909 28.7695C123.164 28.6172 123.208 28.3337 123.208 26.0448V18.0061Z" fill="#D64B2B"/>
<path fill-rule="evenodd" clip-rule="evenodd" d="M154.692 10.172L158.207 23.4532L166.651 10.172H168.76L164.99 29.5773H161.841L164.702 14.8514L156.276 28.0406L152.512 14.8514L149.651 29.5773H148.351L152.121 10.172H154.692Z" fill="#545554"/>
<path fill-rule="evenodd" clip-rule="evenodd" d="M171.426 24.554H176.683L176.54 12.3509L171.426 24.554ZM179.477 10.172L180.358 29.5773H177.18L176.894 25.1047H171.116L169.091 29.5773H167.907L176.27 10.172H179.477Z" fill="#545554"/>
<path fill-rule="evenodd" clip-rule="evenodd" d="M190.541 10.172L192.575 17.3976L198.312 10.172H199.756L192.928 18.7049L195.986 29.5773H192.635L190.444 21.8246L184.229 29.5773H182.813L190.091 20.5169L187.19 10.172H190.541Z" fill="#545554"/>
</g>
<defs>
<clipPath id="clip0_264_150">
<rect width="200" height="30" fill="white"/>
</clipPath>
</defs>
</svg>
