<svg width="160" height="37" viewBox="0 0 160 37" fill="none" xmlns="http://www.w3.org/2000/svg">
<g clip-path="url(#clip0_264_211)">
<path d="M20.4386 27.0305L23.8451 34.2249C23.9999 34.5846 24.3612 34.7902 24.7741 34.7902H27.0451C27.4064 34.7902 27.6644 34.4819 27.6644 34.1735C27.6644 34.0707 27.6644 33.968 27.6128 33.9166L24.2064 26.7221C24.0515 26.3624 23.6902 26.1569 23.2773 26.1569H21.058C20.6967 26.1569 20.4386 26.4652 20.4386 26.7735C20.387 26.8763 20.387 26.9791 20.4386 27.0305Z" fill="#00B5E2"/>
<path d="M22.8647 0.411079L20.1292 7.91386C19.9744 8.27358 20.0776 8.68469 20.3873 8.99302L21.9873 10.5861C22.2454 10.843 22.6583 10.843 22.8647 10.5861C22.9163 10.5347 22.9679 10.4319 23.0196 10.3291L25.755 2.82636C25.9099 2.46663 25.8067 2.05552 25.497 1.74719L23.897 0.154134C23.6389 -0.10281 23.226 -0.10281 23.0196 0.154134C22.9163 0.256912 22.8647 0.308301 22.8647 0.411079Z" fill="#E5007E"/>
<path d="M8.92895 2.41523L12.3354 9.60968C12.4902 9.9694 12.8515 10.175 13.2644 10.175H15.5354C15.8967 10.175 16.1548 9.86662 16.1548 9.55829C16.1548 9.45551 16.1548 9.35274 16.1031 9.30135L12.6451 2.05551C12.4902 1.69579 12.129 1.49023 11.716 1.49023H9.49669C9.1354 1.49023 8.87734 1.79857 8.87734 2.1069C8.82572 2.20968 8.87734 2.31246 8.92895 2.41523Z" fill="#00B5E2"/>
<path d="M0.416945 13.618L7.90081 16.393C8.2621 16.5472 8.675 16.4444 8.98468 16.1361L10.5847 14.543C10.8427 14.2861 10.8427 13.875 10.5847 13.6694C10.5331 13.618 10.4298 13.5667 10.3782 13.5153L2.84275 10.7917C2.48146 10.6375 2.06856 10.7403 1.75888 11.0486L0.15888 12.6417C-0.099184 12.8986 -0.099184 13.3097 0.15888 13.5153C0.262106 13.5667 0.313719 13.618 0.416945 13.618Z" fill="#E5007E"/>
<path d="M26.0647 22.9194L33.6002 25.6944C33.9615 25.8486 34.3744 25.7458 34.684 25.4375L36.284 23.8444C36.5421 23.5875 36.5421 23.1764 36.284 22.9708C36.2324 22.9194 36.1292 22.868 36.0776 22.8167L28.5937 20.093C28.2324 19.9389 27.8195 20.0417 27.5099 20.35L25.9099 21.943C25.6518 22.2 25.6518 22.6111 25.9099 22.8167C25.9099 22.868 26.0131 22.9194 26.0647 22.9194Z" fill="#E5007E"/>
<path d="M19.1484 19.0652L17.2388 17.2152C17.0323 17.0096 16.7743 16.9583 16.5162 17.061L1.2904 24.1013C0.929108 24.2555 0.722656 24.6152 0.722656 25.0263V27.2874C0.722656 27.6471 1.03233 27.9041 1.34201 27.9041C1.44524 27.9041 1.54846 27.9041 1.60007 27.8527L15.1226 21.5833L10.5291 34.1735C10.3743 34.5333 10.4775 34.9444 10.7872 35.2527L12.3872 36.8458C12.6452 37.1027 13.0581 37.1027 13.2646 36.8458C13.3162 36.7944 13.3678 36.6916 13.4194 36.5888L19.4065 20.1444C19.5613 19.7333 19.4581 19.3221 19.1484 19.0652Z" fill="#003C71"/>
<path d="M34.1163 8.83888L26.8905 12.1792C26.5292 12.3333 26.3228 12.693 26.3228 13.1042V15.3653C26.3228 15.725 26.6324 15.9819 26.9421 15.9819C27.0453 15.9819 27.1486 15.9819 27.2002 15.9305L34.426 12.5903C34.7873 12.4361 35.0453 12.0764 35.0453 11.6653V9.45555C35.0453 9.09582 34.7357 8.83888 34.426 8.83888C34.3228 8.78749 34.2195 8.83888 34.1163 8.83888Z" fill="#00B5E2"/>
<path d="M46.3485 10.175L50.9936 22.6625L55.6388 10.175H57.9614L51.9227 26.1056H50.0646L44.0259 10.175H46.3485Z" fill="#003C71"/>
<path d="M61.884 10.175L70.1421 21.9431V10.175H72.3614V26.1056H70.4001L62.0905 14.3375V26.1056H59.8711V10.175H61.884Z" fill="#003C71"/>
<path d="M74.3228 21.0181H76.4389C76.4389 22.8681 77.9357 24.1528 80.0518 24.1528C82.0131 24.1528 83.4582 23.125 83.4582 21.6348C83.4582 17.575 74.4776 20.1445 74.4776 14.3889C74.4776 11.8709 76.6969 10.0723 79.7421 10.0723C83.2518 10.0723 85.1098 12.2306 85.1098 14.8H82.8905C82.8389 13.2584 81.5486 12.1278 79.6905 12.1278C77.884 12.1278 76.6453 13.0528 76.6453 14.3889C76.6453 18.0889 85.6776 15.5195 85.6776 21.6348C85.6776 24.307 83.3034 26.2084 80.1034 26.2084C76.7486 26.2084 74.3228 23.9987 74.3228 21.0181Z" fill="#003C71"/>
<path d="M106.787 10.175V26.1056H104.568V18.9112H96.2067V26.1056H93.9873V10.175H96.2067V16.8042H104.568V10.175H106.787Z" fill="#003C71"/>
<path d="M119.742 21.1209H110.762C110.865 23.0737 112.516 24.5125 114.478 24.4612C116.026 24.4612 117.265 23.6903 117.574 22.5084H119.691C119.278 24.8209 117.11 26.3112 114.426 26.3112C111.226 26.2598 108.645 23.6389 108.697 20.4528C108.749 17.3181 111.278 14.8 114.374 14.7487C117.316 14.7487 119.742 17.1125 119.794 20.0417V20.2473C119.742 20.5042 119.742 20.9153 119.742 21.1209ZM117.471 19.3223C117.265 17.7292 115.871 16.5473 114.271 16.65C112.62 16.5473 111.174 17.6778 110.813 19.3223H117.471Z" fill="#003C71"/>
<path d="M133.471 15.0056V26.1056H131.355V23.8445C130.581 25.4375 128.877 26.4139 127.122 26.3625C124.129 26.3625 121.703 23.7931 121.703 20.5556C121.703 17.3181 124.129 14.8 127.122 14.8C128.929 14.6973 130.581 15.725 131.355 17.3181V15.057L133.471 15.0056ZM131.355 20.5556C131.406 18.5 129.806 16.8556 127.742 16.7528H127.535C125.419 16.7528 123.716 18.4486 123.716 20.5556C123.716 22.6625 125.419 24.3584 127.535 24.3584C129.6 24.4098 131.303 22.8167 131.355 20.8125V20.5556Z" fill="#003C71"/>
<path d="M137.548 26.1056H135.432V10.175H137.548V26.1056Z" fill="#003C71"/>
<path d="M143.794 17.0097V22.1486C143.794 23.6903 144.723 24.307 146.013 24.307C146.271 24.307 146.529 24.2556 146.787 24.2042V26.157C146.374 26.2597 145.961 26.3111 145.6 26.3111C143.226 26.3111 141.678 24.9236 141.678 22.2514V17.0097H139.51V15.0056H141.678V12.025H143.794V15.0056H146.787V17.0097H143.794Z" fill="#003C71"/>
<path d="M159.122 19.7334V26.1056H157.006V19.9903C157.006 18.0375 155.819 16.8042 153.961 16.8042C152.103 16.8042 150.864 18.0889 150.864 19.9903V26.1056H148.748V10.175H150.864V16.9584C151.535 15.6223 152.929 14.7487 154.425 14.8C157.367 14.7487 159.122 16.7014 159.122 19.7334Z" fill="#003C71"/>
</g>
<defs>
<clipPath id="clip0_264_211">
<rect width="160" height="37" fill="white"/>
</clipPath>
</defs>
</svg>
