<svg width="28" height="28" viewBox="0 0 28 28" fill="none" xmlns="http://www.w3.org/2000/svg">
<path d="M22.1666 16.3333C23.9049 14.63 25.6666 12.5883 25.6666 9.91667C25.6666 8.21486 24.9905 6.58276 23.7872 5.3794C22.5838 4.17604 20.9517 3.5 19.2499 3.5C17.1966 3.5 15.7499 4.08333 13.9999 5.83333C12.2499 4.08333 10.8033 3.5 8.74992 3.5C7.04811 3.5 5.41601 4.17604 4.21265 5.3794C3.00929 6.58276 2.33325 8.21486 2.33325 9.91667C2.33325 12.6 4.08325 14.6417 5.83325 16.3333L13.9999 24.5L22.1666 16.3333Z" stroke="url(#paint0_linear_42_23)" stroke-width="2.33333" stroke-linecap="round" stroke-linejoin="round"/>
<path d="M3.75659 14H11.0833L11.6666 12.8334L13.9999 18.0834L16.3333 9.91669L18.0833 14H24.2316" stroke="url(#paint1_linear_42_23)" stroke-width="2.33333" stroke-linecap="round" stroke-linejoin="round"/>
<defs>
<linearGradient id="paint0_linear_42_23" x1="13.9999" y1="3.5" x2="13.9999" y2="24.5" gradientUnits="userSpaceOnUse">
<stop stop-color="#A17810"/>
<stop offset="1" stop-color="#3B2C06"/>
</linearGradient>
<linearGradient id="paint1_linear_42_23" x1="13.9941" y1="9.91669" x2="13.9941" y2="18.0834" gradientUnits="userSpaceOnUse">
<stop stop-color="#A17810"/>
<stop offset="1" stop-color="#3B2C06"/>
</linearGradient>
</defs>
</svg>
