<svg width="28" height="28" viewBox="0 0 28 28" fill="none" xmlns="http://www.w3.org/2000/svg">
<path d="M12.8333 2.33337V4.66671" stroke="url(#paint0_linear_42_30)" stroke-width="2.33333" stroke-linecap="round" stroke-linejoin="round"/>
<path d="M5.83325 2.33337V4.66671" stroke="url(#paint1_linear_42_30)" stroke-width="2.33333" stroke-linecap="round" stroke-linejoin="round"/>
<path d="M5.83325 3.5H4.66659C4.04775 3.5 3.45425 3.74583 3.01667 4.18342C2.57908 4.621 2.33325 5.21449 2.33325 5.83333V10.5C2.33325 12.3565 3.07075 14.137 4.3835 15.4497C5.69626 16.7625 7.47674 17.5 9.33325 17.5C11.1898 17.5 12.9702 16.7625 14.283 15.4497C15.5958 14.137 16.3333 12.3565 16.3333 10.5V5.83333C16.3333 5.21449 16.0874 4.621 15.6498 4.18342C15.2122 3.74583 14.6188 3.5 13.9999 3.5H12.8333" stroke="url(#paint2_linear_42_30)" stroke-width="2.33333" stroke-linecap="round" stroke-linejoin="round"/>
<path d="M9.33325 17.5C9.33325 19.3565 10.0708 21.137 11.3835 22.4497C12.6963 23.7625 14.4767 24.5 16.3333 24.5C18.1898 24.5 19.9702 23.7625 21.283 22.4497C22.5958 21.137 23.3333 19.3565 23.3333 17.5V14" stroke="url(#paint3_linear_42_30)" stroke-width="2.33333" stroke-linecap="round" stroke-linejoin="round"/>
<path d="M23.3333 14C24.622 14 25.6667 12.9554 25.6667 11.6667C25.6667 10.378 24.622 9.33337 23.3333 9.33337C22.0447 9.33337 21 10.378 21 11.6667C21 12.9554 22.0447 14 23.3333 14Z" stroke="url(#paint4_linear_42_30)" stroke-width="2.33333" stroke-linecap="round" stroke-linejoin="round"/>
<defs>
<linearGradient id="paint0_linear_42_30" x1="13.3333" y1="2.33337" x2="13.3333" y2="4.66671" gradientUnits="userSpaceOnUse">
<stop stop-color="#C49331"/>
<stop offset="1" stop-color="#5E4718"/>
</linearGradient>
<linearGradient id="paint1_linear_42_30" x1="6.33325" y1="2.33337" x2="6.33325" y2="4.66671" gradientUnits="userSpaceOnUse">
<stop stop-color="#C49331"/>
<stop offset="1" stop-color="#5E4718"/>
</linearGradient>
<linearGradient id="paint2_linear_42_30" x1="9.33325" y1="3.5" x2="9.33325" y2="17.5" gradientUnits="userSpaceOnUse">
<stop stop-color="#C49331"/>
<stop offset="1" stop-color="#5E4718"/>
</linearGradient>
<linearGradient id="paint3_linear_42_30" x1="16.3333" y1="14" x2="16.3333" y2="24.5" gradientUnits="userSpaceOnUse">
<stop stop-color="#C49331"/>
<stop offset="1" stop-color="#5E4718"/>
</linearGradient>
<linearGradient id="paint4_linear_42_30" x1="23.3333" y1="9.33337" x2="23.3333" y2="14" gradientUnits="userSpaceOnUse">
<stop stop-color="#C49331"/>
<stop offset="1" stop-color="#5E4718"/>
</linearGradient>
</defs>
</svg>
