<svg width="28" height="28" viewBox="0 0 28 28" fill="none" xmlns="http://www.w3.org/2000/svg">
<path d="M25.6666 14H22.7733C22.2634 13.9989 21.7672 14.1649 21.3606 14.4725C20.9539 14.7801 20.6592 15.2124 20.5216 15.7034L17.7799 25.4567C17.7622 25.5173 17.7254 25.5705 17.6749 25.6084C17.6244 25.6462 17.563 25.6667 17.4999 25.6667C17.4368 25.6667 17.3754 25.6462 17.3249 25.6084C17.2744 25.5705 17.2376 25.5173 17.2199 25.4567L10.7799 2.54337C10.7622 2.48279 10.7254 2.42957 10.6749 2.39171C10.6244 2.35384 10.563 2.33337 10.4999 2.33337C10.4368 2.33337 10.3754 2.35384 10.3249 2.39171C10.2744 2.42957 10.2376 2.48279 10.2199 2.54337L7.47825 12.2967C7.34113 12.7857 7.0482 13.2166 6.64393 13.5241C6.23966 13.8315 5.74612 13.9986 5.23825 14H2.33325" stroke="url(#paint0_linear_42_56)" stroke-width="2.33333" stroke-linecap="round" stroke-linejoin="round"/>
<defs>
<linearGradient id="paint0_linear_42_56" x1="13.9999" y1="2.33337" x2="13.9999" y2="25.6667" gradientUnits="userSpaceOnUse">
<stop stop-color="#A17810"/>
<stop offset="1" stop-color="#5E4718"/>
</linearGradient>
</defs>
</svg>
