<svg width="28" height="28" viewBox="0 0 28 28" fill="none" xmlns="http://www.w3.org/2000/svg">
<path d="M2.33325 23.3333V14C2.33325 13.3811 2.57908 12.7876 3.01667 12.35C3.45425 11.9125 4.04775 11.6666 4.66659 11.6666H23.3333C23.9521 11.6666 24.5456 11.9125 24.9832 12.35C25.4208 12.7876 25.6666 13.3811 25.6666 14V23.3333" stroke="url(#paint0_linear_42_40)" stroke-width="2.33333" stroke-linecap="round" stroke-linejoin="round"/>
<path d="M4.66675 11.6666V6.99996C4.66675 6.38112 4.91258 5.78763 5.35017 5.35004C5.78775 4.91246 6.38124 4.66663 7.00008 4.66663H21.0001C21.6189 4.66663 22.2124 4.91246 22.65 5.35004C23.0876 5.78763 23.3334 6.38112 23.3334 6.99996V11.6666" stroke="url(#paint1_linear_42_40)" stroke-width="2.33333" stroke-linecap="round" stroke-linejoin="round"/>
<path d="M14 4.66663V11.6666" stroke="url(#paint2_linear_42_40)" stroke-width="2.33333" stroke-linecap="round" stroke-linejoin="round"/>
<path d="M2.33325 21H25.6666" stroke="url(#paint3_linear_42_40)" stroke-width="2.33333" stroke-linecap="round" stroke-linejoin="round"/>
<defs>
<linearGradient id="paint0_linear_42_40" x1="13.9999" y1="11.6666" x2="13.9999" y2="23.3333" gradientUnits="userSpaceOnUse">
<stop stop-color="#C49331"/>
<stop offset="1" stop-color="#5E4718"/>
</linearGradient>
<linearGradient id="paint1_linear_42_40" x1="14.0001" y1="4.66663" x2="14.0001" y2="11.6666" gradientUnits="userSpaceOnUse">
<stop stop-color="#C49331"/>
<stop offset="1" stop-color="#5E4718"/>
</linearGradient>
<linearGradient id="paint2_linear_42_40" x1="14.5" y1="4.66663" x2="14.5" y2="11.6666" gradientUnits="userSpaceOnUse">
<stop stop-color="#C49331"/>
<stop offset="1" stop-color="#5E4718"/>
</linearGradient>
<linearGradient id="paint3_linear_42_40" x1="13.9999" y1="21" x2="13.9999" y2="22" gradientUnits="userSpaceOnUse">
<stop stop-color="#A17810"/>
<stop offset="1" stop-color="#5E4718"/>
</linearGradient>
</defs>
</svg>
